<svg width="108" height="249" viewBox="0 0 108 249" fill="none" xmlns="http://www.w3.org/2000/svg">
<path d="M2.85732 56.7367C2.68908 56.8782 2.48321 56.9676 2.26497 56.9938C2.04673 57.0201 1.82555 56.9821 1.62856 56.8846C1.43157 56.787 1.26732 56.6342 1.1559 56.4447C1.04448 56.2552 0.990763 56.0373 1.0013 55.8178C1.3603 48.3598 2.8773 24.6328 7.9103 17.0848C13.9103 8.08476 37.9103 0.0847585 42.9103 1.08476C47.9103 2.08476 51.9103 23.0848 47.9103 27.0848C43.9103 31.0848 29.5683 40.5307 22.5683 40.5297C16.5043 40.5337 8.02332 52.4267 2.85732 56.7367Z" fill="#F5865C" stroke="white" stroke-miterlimit="10"/>
<path d="M1.9063 62.0847C1.9063 62.0847 15.9063 45.0847 22.9063 44.0847C29.9063 43.0847 44.9063 35.0847 47.9063 35.0847C50.9063 35.0847 49.9063 40.0847 49.9063 49.0847C49.9063 58.0847 50.9063 74.0847 45.9063 77.0847C40.9063 80.0847 21.9063 79.0847 13.9063 83.0847C5.9063 87.0847 1.9063 87.0847 1.9063 83.0847C1.9063 79.0847 -0.0946988 67.0837 1.9063 62.0847Z" fill="#F5865C" stroke="white" stroke-miterlimit="10"/>
<path d="M2.90325 89.0847C2.90325 89.0847 11.9032 89.0847 16.9032 86.0847C21.9032 83.0847 43.9032 81.0847 45.9032 81.0847C47.9032 81.0847 51.9032 86.0847 51.9032 99.0847C51.9032 112.085 47.9032 126.085 40.9032 129.085C33.9032 132.085 23.9032 128.085 14.9032 132.085C5.90325 136.085 3.90325 136.085 2.90325 131.085C1.90325 126.085 -0.0967546 91.0837 2.90325 89.0847Z" fill="#F5865C" stroke="white" stroke-miterlimit="10"/>
<path d="M101.664 56.3998C101.852 56.5678 102.085 56.6767 102.334 56.7125C102.584 56.7484 102.838 56.7096 103.065 56.6012C103.293 56.4928 103.483 56.3195 103.612 56.1032C103.741 55.8869 103.803 55.6373 103.79 55.3858C103.396 47.4858 101.847 24.4957 96.9103 17.0857C90.9103 8.08574 66.9103 0.0857351 61.9103 1.08574C56.9103 2.08574 52.5673 24.5297 56.5663 28.5297C60.5653 32.5297 74.6373 39.5397 81.5663 40.5297C88.5673 41.5337 96.4803 51.8188 101.664 56.3998Z" fill="#F5865C" stroke="white" stroke-miterlimit="10"/>
<path d="M102.906 62.0938C102.906 62.0938 88.9063 45.0938 81.9063 44.0938C74.9063 43.0938 59.9063 35.0938 56.9063 35.0938C53.9063 35.0938 54.9063 40.0938 54.9063 49.0938C54.9063 58.0938 53.9063 74.0938 58.9063 77.0938C63.9063 80.0938 82.9063 79.0938 90.9063 83.0938C98.9063 87.0938 102.906 87.0938 102.906 83.0938C102.906 79.0938 104.905 67.0947 102.906 62.0938Z" fill="#F5865C" stroke="white" stroke-miterlimit="10"/>
<path d="M101.903 89.0938C101.903 89.0938 92.9033 89.0938 87.9033 86.0938C82.9033 83.0938 60.9033 81.0938 58.9033 81.0938C56.9033 81.0938 54.9033 86.0938 54.9033 99.0938C54.9033 112.094 57.9033 124.094 64.9033 127.094C71.9033 130.094 81.9033 124.094 93.9033 126.094C103.618 127.715 104.903 125.094 105.903 120.094C106.903 115.094 104.903 91.0947 101.903 89.0938Z" fill="#F5865C" stroke="white" stroke-miterlimit="10"/>
<path d="M6.8983 139.085C6.8983 139.085 14.8983 136.085 20.8983 134.085C26.8983 132.085 38.8983 135.085 43.8983 134.085C48.8983 133.085 55.8983 130.085 56.8983 136.085C57.6333 140.494 64.3043 177.3 67.7903 196.512C67.8076 196.601 67.8585 196.68 67.9325 196.733C68.0065 196.785 68.098 196.807 68.1879 196.795C68.2777 196.782 68.3592 196.735 68.4155 196.664C68.4718 196.592 68.4986 196.502 68.4903 196.412C66.0903 175.852 61.6613 135.07 63.8983 132.088C66.8983 128.088 81.8983 130.088 87.8983 129.088C93.8983 128.088 104.898 129.088 106.898 132.088C108.898 135.088 104.898 162.088 103.898 168.088C102.898 174.088 95.8983 213.088 93.8983 218.088C91.8983 223.088 94.8983 244.088 89.8983 246.088C84.8983 248.088 72.8983 250.088 66.8983 243.088C60.8983 236.088 2.8983 141.085 6.8983 139.085Z" fill="#F5865C" stroke="white" stroke-miterlimit="10"/>
</svg>
