<svg width="124" height="109" viewBox="0 0 124 109" fill="none" xmlns="http://www.w3.org/2000/svg">
<path d="M42.0095 14.1472C42.0095 14.1472 40.0095 20.1472 30.0095 24.1472C20.0095 28.1472 8.05945 34.1652 3.03345 53.1542C-1.31655 69.5882 1.00344 90.1442 13.0024 98.1452C25.0014 106.146 26.0024 109.145 30.0024 108.145C34.0024 107.145 44.0024 88.1452 47.0024 82.1452C50.0024 76.1452 55.0024 63.1452 53.0024 53.1452C51.0024 43.1452 45.0105 10.1472 42.0095 14.1472Z" fill="#F5865C" stroke="white" stroke-miterlimit="10"/>
<path d="M108.734 1.15314C108.734 1.15314 120.734 11.1531 122.734 23.1531C124.734 35.1531 117.734 66.1531 108.734 72.1531C99.7343 78.1531 99.7343 72.1531 98.7343 66.1531C97.7343 60.1531 95.7343 45.1531 96.7343 38.1531C97.7343 31.1531 100.734 16.1531 102.734 10.1531C104.734 4.15314 106.734 0.153144 108.734 1.15314Z" fill="#F5865C" stroke="white" stroke-miterlimit="10"/>
</svg>
