<svg width="213" height="99" viewBox="0 0 213 99" fill="none" xmlns="http://www.w3.org/2000/svg">
<path d="M169.4 1.25C169.4 1.25 147.4 0.25 129.4 2.25C111.4 4.25 103.4 10.25 98.4 38.25C93.4 66.25 95.4 77.25 100.4 82.25C105.4 87.25 138.4 102.25 157.4 96.255C176.4 90.26 188.4 87.255 197.4 71.255C206.4 55.255 211.4 45.255 212.4 40.255C213.4 35.255 189.4 0.25 169.4 1.25Z" fill="#F5865C" stroke="white" stroke-miterlimit="10"/>
<path d="M24.399 8.23303C24.399 8.23303 42.399 2.23303 54.399 2.23303C66.399 2.23303 81.399 3.23303 85.399 20.233C89.399 37.233 89.394 70.233 86.394 76.233C83.394 82.233 76.394 89.233 56.394 93.233C36.394 97.233 21.394 95.233 12.394 83.233C3.39402 71.233 -1.60598 59.233 2.39402 44.233C6.39402 29.233 7.39802 17.232 24.399 8.23303Z" fill="#F5865C" stroke="white" stroke-miterlimit="10"/>
</svg>
