<svg width="458" height="1009" viewBox="0 0 458 1009" fill="none" xmlns="http://www.w3.org/2000/svg">
<path d="M174.78 60.1684C174.78 60.1684 167.78 3.1684 215.78 0.168396C263.78 -2.8316 262.78 35.1684 263.78 41.1684C264.78 47.1684 266.78 47.1684 267.78 54.1684C268.78 61.1684 267.78 69.1684 267.78 71.1684C267.274 79.6132 265.934 87.9872 263.78 96.1684C260.78 107.168 262.78 116.168 249.78 125.168C236.78 134.168 213.78 125.168 202.78 113.168C191.78 101.168 187.78 90.1684 187.78 90.1684C187.78 90.1684 180.78 94.1684 174.78 85.1684C168.78 76.1684 166.78 64.1684 174.78 60.1684Z" fill="#283646"/>
<path d="M179.78 88.1684C179.78 88.1684 187.78 131.168 185.78 136.168C183.78 141.168 144.78 164.168 144.78 164.168C144.78 164.168 152.78 182.168 169.78 185.168C186.78 188.168 275.78 182.168 275.78 182.168L314.78 161.168C314.78 161.168 290.78 151.168 283.78 145.168C276.78 139.168 248.78 114.168 248.78 114.168L189.78 85.1684L179.78 88.1684Z" fill="#283646"/>
<path d="M300.78 158.168C300.78 158.168 323.78 148.168 342.78 155.168C361.78 162.168 385.78 180.168 396.78 202.168C396.78 202.168 414.78 205.168 428.78 236.168C442.78 267.168 457.78 270.168 457.78 284.168C457.78 298.168 437.78 339.168 422.78 351.168C407.78 363.168 383.78 393.168 378.78 402.168C373.78 411.168 360.78 435.168 343.78 447.168C326.78 459.168 324.78 460.168 322.78 458.168C320.78 456.168 323.78 451.168 323.78 451.168C323.78 451.168 312.78 465.168 307.78 461.168C302.78 457.168 307.78 453.168 307.78 453.168C307.78 453.168 302.78 458.168 298.78 455.168C294.78 452.168 319.78 416.168 319.78 416.168L306.78 425.168C306.78 425.168 297.78 433.168 293.78 429.168C289.78 425.168 311.78 401.168 316.78 396.168C321.78 391.168 331.78 389.168 338.78 387.168C345.78 385.168 356.78 384.168 363.78 370.168C370.78 356.168 379.78 341.168 386.78 322.168C393.78 303.168 400.78 299.168 410.78 293.168C410.78 293.168 371.78 277.168 358.78 257.168C345.78 237.168 346.78 240.168 346.78 240.168C346.78 240.168 321.78 206.168 314.78 191.168C307.78 176.168 300.78 158.168 300.78 158.168Z" fill="#283646"/>
<path d="M346.78 228.168C346.78 228.168 346.78 251.168 337.78 274.168C328.78 297.168 317.78 318.168 314.78 331.168C311.78 344.168 311.78 401.168 314.78 414.168C317.78 427.168 333.78 459.168 333.78 480.168C333.78 501.168 335.78 544.168 333.78 571.168C331.78 598.168 327.78 617.168 315.78 640.168C303.78 663.168 293.78 680.168 290.78 703.168C287.78 726.168 294.78 769.168 285.78 797.168C276.78 825.168 247.78 901.168 246.78 911.168C245.78 921.168 242.78 932.168 246.78 938.168C250.78 944.168 278.78 977.168 278.78 977.168C278.78 977.168 286.78 986.168 279.78 990.168C272.78 994.168 260.78 998.168 249.78 994.168C238.78 990.168 230.78 984.168 227.78 975.168C224.78 966.168 219.78 969.168 213.78 967.168C207.78 965.168 197.78 963.168 200.78 946.168C203.78 929.168 205.78 930.168 206.78 917.168C207.78 904.168 217.78 894.168 216.78 883.168C215.78 872.168 221.78 825.168 217.78 810.168C213.78 795.168 208.78 776.168 217.78 747.168C226.78 718.168 230.78 722.168 226.78 710.168C222.78 698.168 219.78 689.168 221.78 656.168C223.78 623.168 226.78 557.168 236.78 534.168C236.78 534.168 224.78 541.168 222.78 549.168C220.78 557.168 215.78 617.168 202.78 638.168C189.78 659.168 186.78 666.168 178.78 686.168C170.78 706.168 161.78 728.168 162.78 736.168C163.78 744.168 175.78 780.168 172.78 798.168C169.78 816.168 156.78 832.168 149.78 846.168C142.78 860.168 122.78 925.168 124.78 935.168C126.78 945.168 138.78 959.168 134.78 971.168C130.78 983.168 125.78 986.168 97.7804 987.168C69.7804 988.168 58.7804 1003.17 38.7804 1006.17C18.7804 1009.17 3.78039 1010.17 0.780389 1004.17C-2.21961 998.168 3.78039 994.168 12.7804 989.168C21.7804 984.168 33.7804 980.168 40.7804 972.168C47.7804 964.168 64.7804 949.168 71.7804 942.168C78.7804 935.168 86.7804 891.168 86.7804 851.168C86.7804 811.168 97.7804 757.168 100.78 741.168C103.78 725.168 101.78 717.168 100.78 697.168C99.7804 677.168 107.78 672.168 105.78 663.168C103.78 654.168 83.7804 626.168 89.7804 585.168C95.7804 544.168 126.78 511.168 131.78 496.168C136.78 481.168 137.78 384.168 137.78 365.168C137.78 346.168 141.78 328.168 130.78 313.168C119.78 298.168 112.78 283.168 113.78 249.168C114.78 215.168 123.78 192.168 123.78 192.168L163.78 162.168L264.78 155.168L317.78 167.168L346.78 228.168Z" fill="#283646"/>
<path d="M154.78 162.168C154.78 162.168 128.78 146.168 103.78 162.168C78.7804 178.168 61.7804 211.168 61.7804 211.168C61.7804 211.168 33.7804 229.168 20.7804 260.168C7.78037 291.168 -0.219664 291.168 4.78034 305.168C9.78034 319.168 24.7804 348.168 43.7804 367.168C62.7804 386.168 79.7804 407.168 85.7804 418.168C91.7804 429.168 107.78 465.168 112.78 473.168C117.78 481.168 121.78 489.168 124.78 487.168C127.78 485.168 124.78 481.168 121.78 473.168C119.964 468.31 118.624 463.286 117.78 458.168C117.78 458.168 139.78 485.168 143.78 490.168C147.78 495.168 154.78 489.168 151.78 484.168C151.78 484.168 153.78 487.168 158.78 485.168C163.78 483.168 158.78 473.168 158.78 473.168C158.78 473.168 163.78 474.168 165.78 470.168C167.78 466.168 148.78 433.168 146.78 427.168C144.78 421.168 142.78 417.168 138.78 414.168C134.78 411.168 105.78 388.168 102.78 382.168C99.7804 376.168 76.7804 346.168 69.7804 333.168C62.7804 320.168 50.7804 303.168 50.7804 303.168C50.7804 303.168 62.7804 303.168 91.7804 271.168C109.642 251.127 123.856 228.113 133.78 203.168L161.78 173.168L154.78 162.168Z" fill="#283646"/>
</svg>
