<svg width="74" height="75" viewBox="0 0 74 75" fill="none" xmlns="http://www.w3.org/2000/svg">
<path d="M65.5336 3.86123C65.3833 3.95556 65.2234 4.03366 65.0566 4.09424C53.7909 8.34742 43.1181 14.0303 33.3006 21.0033C20.3566 30.4933 5.17558 60.8332 1.25658 68.9732C1.11006 69.2739 1.02442 69.6005 1.00451 69.9344C0.984591 70.2682 1.03081 70.6027 1.14055 70.9187C1.25029 71.2346 1.42138 71.5257 1.64397 71.7754C1.86656 72.025 2.13627 72.2282 2.43761 72.3733C5.53761 73.8263 12.0506 75.1433 22.2966 68.9973C37.2966 59.9973 66.2966 24.0023 70.2966 18.0023C72.7676 14.3023 73.3316 7.92525 73.4016 3.59125C73.4072 3.13132 73.2888 2.67837 73.0588 2.28003C72.8289 1.88168 72.4958 1.55266 72.0947 1.32754C71.6936 1.10243 71.2392 0.989552 70.7794 1.00076C70.3196 1.01197 69.8713 1.14687 69.4816 1.39126L65.5336 3.86123Z" fill="#F5865C" stroke="white" stroke-miterlimit="10"/>
</svg>
