<svg width="40" height="185" viewBox="0 0 40 185" fill="none" xmlns="http://www.w3.org/2000/svg">
<path d="M5.13849 2.63525C5.13849 2.63525 14.1385 10.6353 18.1385 12.6353C22.1385 14.6353 28.1385 17.6353 27.1385 22.6353C26.1385 27.6353 24.1385 41.6353 17.1385 37.6353C10.1385 33.6353 3.13849 20.6353 2.13849 14.6353C1.13849 8.63525 -0.860511 -3.36475 5.13849 2.63525Z" fill="#F5865C" stroke="white" stroke-miterlimit="10"/>
<path d="M15.1355 39.6362C16.5239 40.1182 17.785 40.9084 18.8242 41.9476C19.8633 42.9868 20.6536 44.2479 21.1355 45.6362C23.1355 50.6362 24.1355 69.6362 20.1355 68.6362C16.1355 67.6362 9.1355 61.6362 8.1355 57.6362C7.1355 53.6362 6.1355 51.6362 9.1355 49.6362C12.1355 47.6362 13.1355 38.6362 15.1355 39.6362Z" fill="#F5865C" stroke="white" stroke-miterlimit="10"/>
<path d="M11.1324 66.6362C11.1324 66.6362 21.1324 73.6362 22.1324 77.6362C23.1324 81.6362 27.1324 99.6362 22.1324 101.636C17.1324 103.636 10.1324 98.6362 10.1324 95.6362V72.6362C10.1324 68.6362 10.1324 65.6362 11.1324 66.6362Z" fill="#F5865C" stroke="white" stroke-miterlimit="10"/>
<path d="M10.1295 100.636C10.1295 100.636 19.1295 106.636 21.1295 106.636C23.1295 106.636 26.1295 137.636 22.1295 139.636C18.1295 141.636 12.1295 136.636 11.1295 132.636C10.1295 128.636 9.12955 99.6362 10.1295 100.636Z" fill="#F5865C" stroke="white" stroke-miterlimit="10"/>
<path d="M13.1256 140.636C13.1256 140.636 22.1256 148.636 28.1256 151.636C34.1256 154.636 37.1256 168.636 39.1256 177.636C41.1256 186.636 30.1256 184.636 26.1256 176.636C22.1256 168.636 15.1256 152.636 13.1256 149.636C11.1256 146.636 8.12556 138.636 13.1256 140.636Z" fill="#F5865C" stroke="white" stroke-miterlimit="10"/>
</svg>
