<svg width="74" height="163" viewBox="0 0 74 163" fill="none" xmlns="http://www.w3.org/2000/svg">
<path d="M66.0996 2.49366C66.0996 2.49366 53.0996 10.4937 44.0996 16.4937C35.0996 22.4937 23.0996 44.4937 15.0996 57.4937C7.09958 70.4937 0.0996318 100.494 1.09463 110.494C2.08963 120.494 4.09463 144.494 10.0896 153.494C16.0846 162.494 13.0896 162.494 17.0896 162.494C21.0896 162.494 23.0896 147.494 27.0896 139.494C31.0896 131.494 45.0896 110.494 51.0896 100.494C57.0896 90.4937 61.0896 82.4937 61.0896 70.4937C61.0896 58.4937 59.0896 43.4937 65.0896 32.4937C71.0896 21.4937 78.1006 -6.50534 66.0996 2.49366Z" fill="#F5865C" stroke="white" stroke-miterlimit="10"/>
</svg>
