<svg width="73" height="82" viewBox="0 0 73 82" fill="none" xmlns="http://www.w3.org/2000/svg">
<path d="M6.11399 3.89241C6.11399 3.89241 6.16202 4.01342 6.25602 4.24042C7.37002 6.91942 14.89 24.3604 24.111 29.8944C34.111 35.8944 38.111 36.8944 39.111 39.8944C40.111 42.8944 35.111 67.8944 32.111 72.8944C29.111 77.8944 22.077 82.8944 18.078 79.8944C14.079 76.8944 16.614 72.2234 15.112 61.8944C13.078 47.8944 8.11198 42.8944 7.11198 36.8944C6.11198 30.8944 0.111975 2.89443 1.11198 1.89443C2.11198 0.894427 4.11198 -0.105573 6.11198 3.89443" fill="#F5865C"/>
<path d="M6.11399 3.89241C6.11399 3.89241 6.16202 4.01342 6.25602 4.24042C7.37002 6.91942 14.89 24.3604 24.111 29.8944C34.111 35.8944 38.111 36.8944 39.111 39.8944C40.111 42.8944 35.111 67.8944 32.111 72.8944C29.111 77.8944 22.077 82.8944 18.078 79.8944C14.079 76.8944 16.614 72.2234 15.112 61.8944C13.078 47.8944 8.11198 42.8944 7.11198 36.8944C6.11198 30.8944 0.111975 2.89443 1.11198 1.89443C2.11198 0.894427 4.11198 -0.105573 6.11198 3.89443" stroke="white" stroke-miterlimit="10"/>
<path d="M71.111 33.8994C69.3133 35.8057 67.1428 37.322 64.7344 38.3542C62.326 39.3863 59.7312 39.9123 57.111 39.8994C48.111 39.8994 55.68 53.0524 53.111 61.8994C51.077 68.8994 46.111 76.8994 49.111 78.8994C52.111 80.8994 59.078 76.8994 63.079 69.8994C67.08 62.8994 74.111 30.8994 71.111 33.8994Z" fill="#F5865C" stroke="white" stroke-miterlimit="10"/>
</svg>
