<svg width="51" height="178" viewBox="0 0 51 178" fill="none" xmlns="http://www.w3.org/2000/svg">
<path d="M47.3436 1.20705C47.3436 1.20705 24.3436 11.207 15.3436 12.207C6.34362 13.207 -0.656382 15.2071 1.34362 24.2071C3.34362 33.2071 8.34362 38.2071 14.3436 38.2071C20.3436 38.2071 31.5986 34.3311 37.3436 30.2071C44.3226 25.2001 46.3436 24.2071 48.3436 18.2071C50.3436 12.2071 52.3436 -0.792951 47.3436 1.20705Z" fill="#F5865C" stroke="white" stroke-miterlimit="10"/>
<path d="M44.3206 27.1981C40.7329 30.4367 36.69 33.132 32.3206 35.1981C24.3206 39.1981 13.3206 39.1981 9.32063 43.1981C5.32063 47.1981 5.3376 70.1981 9.3376 71.2031C13.3376 72.2081 28.3376 62.2031 33.3376 58.2031C38.3376 54.2031 42.3376 44.2031 44.3376 37.2031C46.3376 30.2031 48.3206 23.1991 44.3206 27.1981Z" fill="#F5865C" stroke="white" stroke-miterlimit="10"/>
<path d="M39.3386 55.2071C35.5241 60.1057 30.763 64.1867 25.3386 67.2071C16.3386 72.2071 7.33862 73.2071 7.33862 84.2071C7.33862 95.2071 9.33862 100.207 17.3386 99.2071C25.3386 98.2071 31.3386 94.2071 35.3386 86.2071C39.3386 78.2071 42.3386 72.2071 43.3386 68.2071C44.3386 64.2071 40.3386 52.2071 39.3386 55.2071Z" fill="#F5865C" stroke="white" stroke-miterlimit="10"/>
<path d="M37.3355 88.2071C37.3355 88.2071 29.3355 100.207 20.3355 103.207C11.3355 106.207 9.33553 114.207 11.3355 122.207C13.3355 130.207 19.3355 135.207 25.3355 132.207C31.3355 129.207 41.3355 118.207 43.3355 114.207C45.3355 110.207 46.3355 88.2071 45.3355 85.2071C44.3355 82.2071 41.3365 80.2071 37.3355 88.2071Z" fill="#F5865C" stroke="white" stroke-miterlimit="10"/>
<path d="M43.3325 119.207C43.3325 119.207 25.3325 138.207 16.3325 141.207C7.33252 144.207 6.33252 151.207 7.33252 161.207C8.33252 171.207 9.33252 178.207 14.3325 176.207C19.3325 174.207 30.3325 154.207 35.3325 148.207C40.3325 142.207 46.3325 140.207 46.3325 132.207C46.3325 124.207 47.3325 115.207 43.3325 119.207Z" fill="#F5865C" stroke="white" stroke-miterlimit="10"/>
</svg>
