<svg width="88" height="75" viewBox="0 0 88 75" fill="none" xmlns="http://www.w3.org/2000/svg">
<path d="M9.34617 6.52099C10.007 7.003 10.6092 7.56079 11.1402 8.18298C13.2822 10.683 20.6452 18.041 35.4592 21.334C53.4592 25.334 58.4592 26.334 62.4592 31.334C66.4592 36.334 86.4592 69.334 86.4592 69.334L75.4592 74.334C75.4592 74.334 49.4592 62.334 35.4592 48.334C23.7432 36.616 6.42521 10.187 1.08921 1.87998C1.01782 1.76745 0.987827 1.63355 1.0045 1.50134C1.02117 1.36912 1.08343 1.24684 1.18052 1.15556C1.27761 1.06427 1.40348 1.00967 1.53648 1.00117C1.66947 0.992667 1.80124 1.03079 1.90916 1.10897L9.34617 6.52099Z" fill="#F5865C" stroke="white" stroke-miterlimit="10"/>
</svg>
