<svg width="80" height="198" viewBox="0 0 80 198" fill="none" xmlns="http://www.w3.org/2000/svg">
<path d="M1.09155 98.5026C1.09155 98.5026 4.09155 130.503 6.08655 147.503C8.08155 164.503 4.08655 184.503 8.08655 189.503C12.0865 194.503 40.0865 200.503 45.0865 193.503C50.0865 186.503 73.0866 147.503 76.0926 126.503C79.0986 105.503 80.0985 71.5026 79.0995 60.5026C78.1005 49.5026 63.0995 29.5026 58.0995 21.5026C55.3225 17.0586 51.6206 9.22064 48.8776 3.12964C48.5795 2.46673 48.0883 1.90924 47.4682 1.53009C46.8481 1.15095 46.1279 0.967796 45.402 1.00464C44.6761 1.04149 43.9783 1.29659 43.3998 1.73658C42.8212 2.17657 42.389 2.78096 42.1596 3.47065C36.8926 19.2926 25.7846 51.6107 19.0956 63.4987C10.0936 79.5087 0.0925516 89.5026 1.09155 98.5026Z" fill="#F5865C" stroke="white" stroke-miterlimit="10"/>
</svg>
