<svg width="148" height="50" viewBox="0 0 148 50" fill="none" xmlns="http://www.w3.org/2000/svg">
<path d="M34.7919 13.8987C34.7919 13.8987 18.7919 26.8987 11.7919 30.8987C4.79189 34.8987 -1.20811 36.8987 1.79189 39.8987C4.79189 42.8987 12.7919 47.8987 22.7919 47.8987C32.7919 47.8987 42.7919 50.8987 42.7919 43.8987C42.7919 36.8987 39.7919 9.89966 34.7919 13.8987Z" fill="#F5865C" stroke="white" stroke-miterlimit="10"/>
<path d="M106.793 1.90569C106.793 1.90569 135.793 27.9057 141.793 30.9057C147.793 33.9057 150.793 35.9057 141.793 40.9057C132.793 45.9057 105.793 48.9057 97.7929 46.9057C89.7929 44.9057 93.7929 42.9057 97.7929 32.9057C101.793 22.9057 102.793 13.9057 103.793 8.90569C104.793 3.90569 102.793 -1.09431 106.793 1.90569Z" fill="#F5865C" stroke="white" stroke-miterlimit="10"/>
</svg>
