<svg width="21" height="21" viewBox="0 0 21 21" fill="none" xmlns="http://www.w3.org/2000/svg">
<circle cx="10.5" cy="10.5" r="10" stroke="#1A58E7"/>
<path d="M14.415 7.3446C14.6062 7.19055 14.8606 7.10539 15.1245 7.10708C15.3885 7.10877 15.6413 7.19718 15.8297 7.35366C16.0181 7.51014 16.1274 7.72244 16.1343 7.94577C16.1413 8.1691 16.0455 8.386 15.8671 8.55068L10.4521 14.2824C10.359 14.3673 10.2466 14.4354 10.1217 14.4827C9.99679 14.53 9.86188 14.5555 9.72505 14.5576C9.58823 14.5598 9.45229 14.5385 9.32538 14.4952C9.19847 14.4519 9.08319 14.3873 8.98643 14.3054L5.39543 11.2661C5.29542 11.1872 5.21521 11.0921 5.15958 10.9864C5.10395 10.8808 5.07404 10.7667 5.07162 10.651C5.06921 10.5353 5.09435 10.4204 5.14555 10.3132C5.19674 10.2059 5.27294 10.1085 5.36959 10.0266C5.46624 9.94484 5.58137 9.88035 5.70812 9.83702C5.83486 9.7937 5.97061 9.77242 6.10728 9.77446C6.24395 9.7765 6.37873 9.80182 6.50359 9.8489C6.62844 9.89599 6.74081 9.96388 6.834 10.0485L9.67586 12.4526L14.3879 7.36987C14.3963 7.361 14.4054 7.35256 14.415 7.3446Z" fill="#1A58E7"/>
</svg>
