<svg width="29" height="29" viewBox="0 0 29 29" fill="none" xmlns="http://www.w3.org/2000/svg">
<g opacity="0.2">
<path d="M14.5 26.2812C21.0063 26.2812 26.2812 21.0063 26.2812 14.5C26.2812 7.99369 21.0063 2.71875 14.5 2.71875C7.99369 2.71875 2.71875 7.99369 2.71875 14.5C2.71875 21.0063 7.99369 26.2812 14.5 26.2812ZM12.5 9.70311C12.4123 9.61979 12.3422 9.51976 12.2938 9.40891C12.2453 9.29807 12.2196 9.17865 12.218 9.0577C12.2165 8.93674 12.2392 8.8167 12.2847 8.70465C12.3303 8.5926 12.3979 8.49081 12.4834 8.40528C12.5689 8.31974 12.6707 8.2522 12.7828 8.20662C12.8948 8.16105 13.0149 8.13837 13.1358 8.13992C13.2568 8.14147 13.3762 8.16721 13.487 8.21564C13.5979 8.26407 13.6979 8.3342 13.7812 8.42189L19.2187 13.8594C19.3886 14.0293 19.484 14.2598 19.484 14.5C19.484 14.7402 19.3886 14.9707 19.2187 15.1406L13.7812 20.5781C13.6099 20.7409 13.3817 20.8303 13.1454 20.8273C12.9091 20.8242 12.6833 20.729 12.5162 20.5619C12.3491 20.3948 12.2539 20.169 12.2509 19.9327C12.2478 19.6964 12.3372 19.4682 12.5 19.2969L17.2963 14.5L12.5 9.70311Z" fill="white"/>
</g>
</svg>
