<svg width="10" height="14" viewBox="0 0 10 14" fill="none" xmlns="http://www.w3.org/2000/svg">
<path d="M8.93745 13.125C8.83045 13.1253 8.72704 13.0864 8.64678 13.0156L4.99995 9.77293L1.35311 13.0156C1.29 13.0717 1.21201 13.1084 1.12854 13.1211C1.04507 13.1339 0.95969 13.1222 0.882707 13.0875C0.805723 13.0528 0.740423 12.9966 0.694685 12.9256C0.648948 12.8546 0.624728 12.7719 0.624948 12.6875V2.625C0.625455 2.16103 0.809992 1.7162 1.13807 1.38812C1.46615 1.06004 1.91097 0.875507 2.37495 0.875H7.62495C8.08892 0.875507 8.53375 1.06004 8.86183 1.38812C9.18991 1.7162 9.37444 2.16103 9.37495 2.625V12.6875C9.37495 12.8035 9.32886 12.9148 9.24681 12.9969C9.16476 13.0789 9.05348 13.125 8.93745 13.125Z" fill="#1A58E7"/>
</svg>
