<svg width="20" height="20" viewBox="0 0 20 20" fill="none" xmlns="http://www.w3.org/2000/svg">
<path d="M10 18.125C14.4873 18.125 18.125 14.4873 18.125 10C18.125 5.51269 14.4873 1.875 10 1.875C5.51269 1.875 1.875 5.51269 1.875 10C1.875 14.4873 5.51269 18.125 10 18.125Z" stroke="#1A58E7" stroke-width="1.25" stroke-linecap="round" stroke-linejoin="round"/>
<path d="M10 13.125C11.7259 13.125 13.125 11.7259 13.125 10C13.125 8.27411 11.7259 6.875 10 6.875C8.27411 6.875 6.875 8.27411 6.875 10C6.875 11.7259 8.27411 13.125 10 13.125Z" stroke="#1A58E7" stroke-width="1.25" stroke-linecap="round" stroke-linejoin="round"/>
<path d="M7.26562 11.5625L2.10938 11.875M8.125 2.10938L8.4375 7.26562L8.125 2.10938ZM11.5625 7.26562L11.875 2.10938L11.5625 7.26562ZM8.125 17.8906L8.4375 12.7344L8.125 17.8906ZM11.5625 12.7344L11.875 17.8906L11.5625 12.7344ZM17.8906 8.125L12.7344 8.4375L17.8906 8.125ZM12.7344 11.5625L17.8906 11.875L12.7344 11.5625ZM2.10938 8.125L7.26562 8.4375L2.10938 8.125Z" stroke="#1A58E7" stroke-width="1.25" stroke-linecap="round" stroke-linejoin="round"/>
</svg>
