<svg width="21" height="21" viewBox="0 0 21 21" fill="none" xmlns="http://www.w3.org/2000/svg">
<path d="M17.5824 10.0553H16.3398C16.316 10.0553 16.2932 10.0458 16.2763 10.029C16.2595 10.0121 16.25 9.98927 16.25 9.96545V6.49568C16.25 6.0327 16.0661 5.58869 15.7387 5.26131C15.4113 4.93393 14.9673 4.75002 14.5043 4.75002H11.0346C11.0107 4.75002 10.9879 4.74055 10.971 4.7237C10.9542 4.70685 10.9447 4.684 10.9447 4.66017V3.41763C10.9447 2.19845 9.97891 1.17783 8.75973 1.15672C8.46434 1.15153 8.17088 1.20521 7.89646 1.31465C7.62205 1.42408 7.37218 1.58707 7.16142 1.7941C6.95067 2.00113 6.78326 2.24806 6.66895 2.52049C6.55465 2.79291 6.49574 3.08537 6.49566 3.3808V4.66017C6.49566 4.684 6.4862 4.70685 6.46935 4.7237C6.4525 4.74055 6.42965 4.75002 6.40582 4.75002H2.93605C2.46446 4.75144 2.01258 4.93941 1.67911 5.27288C1.34564 5.60635 1.15767 6.05822 1.15625 6.52982V9.69142C1.15625 9.71525 1.16572 9.7381 1.18256 9.75495C1.19941 9.7718 1.22227 9.78127 1.24609 9.78127H2.45494C3.7743 9.78127 4.86635 10.9259 4.88477 12.2452C4.90363 13.587 3.82865 14.8125 2.49088 14.8125H1.24609C1.22227 14.8125 1.19941 14.822 1.18256 14.8388C1.16572 14.8557 1.15625 14.8785 1.15625 14.9024V18.064C1.15767 18.5356 1.34564 18.9874 1.67911 19.3209C2.01258 19.6544 2.46446 19.8423 2.93605 19.8438H6.09766C6.12148 19.8438 6.14434 19.8343 6.16119 19.8175C6.17803 19.8006 6.1875 19.7778 6.1875 19.7539V18.8137C6.1875 17.4535 7.29932 16.2824 8.6582 16.2505C10.0104 16.219 11.2188 17.1628 11.2188 18.5091V19.7539C11.2188 19.7778 11.2282 19.8006 11.2451 19.8175C11.2619 19.8343 11.2848 19.8438 11.3086 19.8438H14.5043C14.9673 19.8438 15.4113 19.6598 15.7387 19.3325C16.0661 19.0051 16.25 18.5611 16.25 18.0981V14.5942C16.25 14.5704 16.2595 14.5475 16.2763 14.5307C16.2932 14.5138 16.316 14.5044 16.3398 14.5044H17.6192C18.8604 14.5044 19.8438 13.486 19.8438 12.2403C19.8438 10.9946 18.8016 10.0553 17.5824 10.0553V10.0553Z" stroke="#FFCB21" stroke-width="1.4375" stroke-linecap="round" stroke-linejoin="round"/>
</svg>
