<svg width="14" height="14" viewBox="0 0 14 14" fill="none" xmlns="http://www.w3.org/2000/svg">
<path d="M10.8828 2.23781C9.77938 1.35497 8.40817 0.874303 6.99505 0.875001C5.32927 0.875001 3.77341 1.51676 2.6102 2.68215C1.4861 3.80981 0.870046 5.29867 0.874968 6.8734C0.875006 8.02793 1.21395 9.15706 1.84977 10.1207L1.85497 10.1281C1.86262 10.1393 1.87055 10.1505 1.87848 10.1615C1.88641 10.1724 1.89626 10.1866 1.89844 10.1902L1.90446 10.2011C1.93536 10.2558 1.95915 10.3225 1.93809 10.3898L1.43442 12.2125C1.41427 12.2803 1.40324 12.3505 1.40161 12.4212C1.40124 12.6071 1.47464 12.7857 1.60571 12.9176C1.73678 13.0496 1.91482 13.1241 2.10079 13.125C2.19906 13.1218 2.29591 13.1005 2.38653 13.0624L4.23196 12.3963L4.2552 12.3873C4.3054 12.3662 4.35935 12.3555 4.4138 12.3558C4.464 12.3559 4.51375 12.3652 4.56063 12.3832C4.60493 12.4004 5.00716 12.5543 5.43153 12.673C5.78427 12.7714 6.51817 12.9191 7.09321 12.9191C8.72427 12.9191 10.2473 12.2875 11.3815 11.1401C12.5059 10.0015 13.125 8.48805 13.125 6.87668C13.1251 6.46305 13.0813 6.05058 12.9943 5.64621C12.7115 4.31676 11.9618 3.10598 10.8828 2.23781ZM4.37497 7.875C4.20191 7.875 4.03274 7.82368 3.88884 7.72754C3.74495 7.63139 3.6328 7.49473 3.56657 7.33485C3.50035 7.17496 3.48302 6.99903 3.51678 6.8293C3.55054 6.65956 3.63388 6.50365 3.75625 6.38128C3.87862 6.25891 4.03453 6.17558 4.20426 6.14181C4.374 6.10805 4.54993 6.12538 4.70982 6.19161C4.8697 6.25783 5.00636 6.36998 5.1025 6.51388C5.19865 6.65777 5.24997 6.82694 5.24997 7C5.24997 7.23207 5.15778 7.45462 4.99369 7.61872C4.82959 7.78281 4.60703 7.875 4.37497 7.875ZM6.99997 7.875C6.82691 7.875 6.65774 7.82368 6.51384 7.72754C6.36995 7.63139 6.2578 7.49473 6.19157 7.33485C6.12535 7.17496 6.10802 6.99903 6.14178 6.8293C6.17554 6.65956 6.25888 6.50365 6.38125 6.38128C6.50362 6.25891 6.65953 6.17558 6.82926 6.14181C6.999 6.10805 7.17493 6.12538 7.33482 6.19161C7.4947 6.25783 7.63136 6.36998 7.7275 6.51388C7.82365 6.65777 7.87497 6.82694 7.87497 7C7.87497 7.23207 7.78278 7.45462 7.61869 7.61872C7.45459 7.78281 7.23203 7.875 6.99997 7.875ZM9.62497 7.875C9.45191 7.875 9.28274 7.82368 9.13884 7.72754C8.99495 7.63139 8.8828 7.49473 8.81657 7.33485C8.75035 7.17496 8.73302 6.99903 8.76678 6.8293C8.80054 6.65956 8.88388 6.50365 9.00625 6.38128C9.12862 6.25891 9.28453 6.17558 9.45426 6.14181C9.624 6.10805 9.79993 6.12538 9.95982 6.19161C10.1197 6.25783 10.2564 6.36998 10.3525 6.51388C10.4487 6.65777 10.5 6.82694 10.5 7C10.5 7.23207 10.4078 7.45462 10.2437 7.61872C10.0796 7.78281 9.85703 7.875 9.62497 7.875Z" fill="#1A58E7"/>
</svg>
