<svg width="14" height="14" viewBox="0 0 14 14" fill="none" xmlns="http://www.w3.org/2000/svg">
<path d="M10.8828 2.23781C9.77941 1.35497 8.4082 0.874303 6.99508 0.875001C5.3293 0.875001 3.77344 1.51676 2.61023 2.68215C1.48613 3.80981 0.870077 5.29867 0.874999 6.8734C0.875037 8.02793 1.21398 9.15706 1.8498 10.1207L1.855 10.1281C1.86265 10.1393 1.87058 10.1505 1.87851 10.1615C1.88644 10.1724 1.89629 10.1866 1.89848 10.1902L1.90449 10.2011C1.93539 10.2558 1.95918 10.3225 1.93812 10.3898L1.43445 12.2125C1.4143 12.2803 1.40327 12.3505 1.40164 12.4212C1.40128 12.6071 1.47467 12.7857 1.60574 12.9176C1.73681 13.0496 1.91485 13.1241 2.10082 13.125C2.19909 13.1218 2.29594 13.1005 2.38656 13.0624L4.23199 12.3963L4.25523 12.3873C4.30543 12.3662 4.35938 12.3555 4.41383 12.3558C4.46403 12.3559 4.51378 12.3652 4.56066 12.3832C4.60496 12.4004 5.00719 12.5543 5.43156 12.673C5.7843 12.7714 6.5182 12.9191 7.09324 12.9191C8.7243 12.9191 10.2473 12.2875 11.3816 11.1401C12.5059 10.0015 13.125 8.48805 13.125 6.87668C13.1251 6.46305 13.0813 6.05058 12.9943 5.64621C12.7116 4.31676 11.9618 3.10598 10.8828 2.23781ZM4.375 7.875C4.20194 7.875 4.03277 7.82368 3.88888 7.72754C3.74498 7.63139 3.63283 7.49473 3.5666 7.33485C3.50038 7.17496 3.48305 6.99903 3.51681 6.8293C3.55057 6.65956 3.63391 6.50365 3.75628 6.38128C3.87865 6.25891 4.03456 6.17558 4.20429 6.14181C4.37403 6.10805 4.54996 6.12538 4.70985 6.19161C4.86973 6.25783 5.00639 6.36998 5.10253 6.51388C5.19868 6.65777 5.25 6.82694 5.25 7C5.25 7.23207 5.15781 7.45462 4.99372 7.61872C4.82962 7.78281 4.60706 7.875 4.375 7.875ZM7 7.875C6.82694 7.875 6.65777 7.82368 6.51388 7.72754C6.36998 7.63139 6.25783 7.49473 6.1916 7.33485C6.12538 7.17496 6.10805 6.99903 6.14181 6.8293C6.17557 6.65956 6.25891 6.50365 6.38128 6.38128C6.50365 6.25891 6.65956 6.17558 6.8293 6.14181C6.99903 6.10805 7.17496 6.12538 7.33485 6.19161C7.49473 6.25783 7.63139 6.36998 7.72753 6.51388C7.82368 6.65777 7.875 6.82694 7.875 7C7.875 7.23207 7.78281 7.45462 7.61872 7.61872C7.45462 7.78281 7.23206 7.875 7 7.875ZM9.625 7.875C9.45194 7.875 9.28277 7.82368 9.13888 7.72754C8.99498 7.63139 8.88283 7.49473 8.8166 7.33485C8.75038 7.17496 8.73305 6.99903 8.76681 6.8293C8.80057 6.65956 8.88391 6.50365 9.00628 6.38128C9.12865 6.25891 9.28456 6.17558 9.4543 6.14181C9.62403 6.10805 9.79996 6.12538 9.95985 6.19161C10.1197 6.25783 10.2564 6.36998 10.3525 6.51388C10.4487 6.65777 10.5 6.82694 10.5 7C10.5 7.23207 10.4078 7.45462 10.2437 7.61872C10.0796 7.78281 9.85706 7.875 9.625 7.875Z" fill="#1A58E7"/>
</svg>
