<svg width="20" height="20" viewBox="0 0 20 20" fill="none" xmlns="http://www.w3.org/2000/svg">
<path d="M4.375 4.375L5.15625 16.875C5.19336 17.5973 5.71875 18.125 6.40625 18.125H13.5938C14.284 18.125 14.7996 17.5973 14.8438 16.875L15.625 4.375" stroke="#727272" stroke-width="1.25" stroke-linecap="round" stroke-linejoin="round"/>
<path d="M3.125 4.375H16.875H3.125Z" fill="#727272"/>
<path d="M3.125 4.375H16.875" stroke="#727272" stroke-width="1.25" stroke-miterlimit="10" stroke-linecap="round"/>
<path d="M12.8125 6.875L12.5 15.625M7.5 4.375V2.8125C7.49964 2.68929 7.52364 2.56722 7.57063 2.45331C7.61761 2.33941 7.68666 2.23591 7.77378 2.14879C7.86091 2.06166 7.9644 1.99262 8.07831 1.94563C8.19221 1.89865 8.31428 1.87464 8.4375 1.875H11.5625C11.6857 1.87464 11.8078 1.89865 11.9217 1.94563C12.0356 1.99262 12.1391 2.06166 12.2262 2.14879C12.3133 2.23591 12.3824 2.33941 12.4294 2.45331C12.4764 2.56722 12.5004 2.68929 12.5 2.8125V4.375H7.5ZM10 6.875V15.625V6.875ZM7.1875 6.875L7.5 15.625L7.1875 6.875Z" stroke="#727272" stroke-width="1.25" stroke-linecap="round" stroke-linejoin="round"/>
</svg>
