<svg width="21" height="21" viewBox="0 0 21 21" fill="none" xmlns="http://www.w3.org/2000/svg">
<path d="M15.75 9.1875V16.7344C15.75 16.9498 15.7076 17.1632 15.6251 17.3622C15.5427 17.5613 15.4218 17.7421 15.2695 17.8945C15.1171 18.0468 14.9363 18.1677 14.7372 18.2501C14.5382 18.3326 14.3248 18.375 14.1094 18.375H4.26562C3.8305 18.375 3.4132 18.2021 3.10553 17.8945C2.79785 17.5868 2.625 17.1695 2.625 16.7344V6.89062C2.625 6.4555 2.79785 6.0382 3.10553 5.73053C3.4132 5.42285 3.8305 5.25 4.26562 5.25H11.1349" stroke="#11161D" stroke-width="1.3125" stroke-linecap="round" stroke-linejoin="round"/>
<path d="M18.8648 2.18406C18.8048 2.11821 18.7322 2.06519 18.6512 2.02821C18.5702 1.99123 18.4825 1.97106 18.3935 1.96891C18.3045 1.96676 18.2159 1.98269 18.1333 2.01572C18.0506 2.04875 17.9754 2.09821 17.9124 2.16109L17.405 2.666C17.3435 2.72753 17.309 2.81095 17.309 2.89794C17.309 2.98493 17.3435 3.06835 17.405 3.12988L17.8701 3.59418C17.9006 3.62481 17.9369 3.64912 17.9768 3.6657C18.0167 3.68229 18.0595 3.69083 18.1027 3.69083C18.1459 3.69083 18.1887 3.68229 18.2286 3.6657C18.2685 3.64912 18.3048 3.62481 18.3353 3.59418L18.8299 3.10199C19.0801 2.85221 19.1035 2.44533 18.8648 2.18406ZM16.3792 3.69139L8.97509 11.0824C8.9302 11.1271 8.89757 11.1826 8.88034 11.2436L8.53786 12.2637C8.52966 12.2913 8.52908 12.3207 8.53618 12.3487C8.54328 12.3767 8.55781 12.4022 8.57822 12.4226C8.59863 12.443 8.62418 12.4576 8.65216 12.4647C8.68014 12.4718 8.70952 12.4712 8.7372 12.463L9.75644 12.1205C9.81741 12.1033 9.87292 12.0707 9.91763 12.0258L17.3086 4.6208C17.377 4.55169 17.4154 4.45839 17.4154 4.36117C17.4154 4.26395 17.377 4.17066 17.3086 4.10154L16.9005 3.69139C16.8313 3.62239 16.7376 3.58364 16.6399 3.58364C16.5422 3.58364 16.4484 3.62239 16.3792 3.69139Z" fill="#11161D"/>
</svg>
