<svg width="18" height="18" viewBox="0 0 18 18" fill="none" xmlns="http://www.w3.org/2000/svg">
<path d="M15.1872 2.81289C14.3761 1.99382 13.4112 1.34306 12.3479 0.898016C11.2846 0.452971 10.1438 0.222407 8.99114 0.21957C7.83845 0.216733 6.69656 0.441679 5.63107 0.881484C4.56559 1.32129 3.59749 1.96729 2.78242 2.78236C1.96734 3.59744 1.32135 4.56553 0.881544 5.63102C0.441739 6.69651 0.216794 7.8384 0.219631 8.99109C0.222468 10.1438 0.453032 11.2846 0.898076 12.3479C1.34312 13.4112 1.99387 14.3761 2.81295 15.1871C3.624 16.0062 4.5889 16.657 5.65221 17.102C6.71553 17.5471 7.85629 17.7776 9.00898 17.7805C10.1617 17.7833 11.3036 17.5583 12.369 17.1185C13.4345 16.6787 14.4026 16.0327 15.2177 15.2177C16.0328 14.4026 16.6788 13.4345 17.1186 12.369C17.5584 11.3035 17.7833 10.1616 17.7805 9.00893C17.7777 7.85624 17.5471 6.71547 17.102 5.65216C16.657 4.58885 16.0062 3.62395 15.1872 2.81289ZM6.18756 7.12501C6.37298 7.12501 6.55424 7.17999 6.70841 7.28301C6.86258 7.38602 6.98274 7.53244 7.0537 7.70374C7.12465 7.87505 7.14322 8.06355 7.10705 8.24541C7.07087 8.42727 6.98158 8.59431 6.85047 8.72542C6.71936 8.85654 6.55231 8.94582 6.37046 8.982C6.1886 9.01817 6.0001 8.99961 5.82879 8.92865C5.65749 8.85769 5.51107 8.73753 5.40806 8.58336C5.30504 8.42919 5.25006 8.24793 5.25006 8.06251C5.24975 7.93931 5.27379 7.81726 5.32079 7.70338C5.3678 7.5895 5.43684 7.48602 5.52396 7.39891C5.61107 7.31179 5.71455 7.24275 5.82843 7.19574C5.94231 7.14874 6.06436 7.1247 6.18756 7.12501ZM12.7372 11.2723C12.2684 12.8465 10.7762 14 9.00201 14C7.22779 14 5.73561 12.8465 5.26295 11.2723C5.24973 11.2254 5.24765 11.1761 5.25688 11.1283C5.26611 11.0804 5.2864 11.0354 5.31611 10.9968C5.34582 10.9582 5.38415 10.9271 5.42802 10.906C5.4719 10.8848 5.52011 10.8742 5.56881 10.875H12.4317C12.4804 10.8743 12.5285 10.8849 12.5724 10.9061C12.6162 10.9273 12.6545 10.9584 12.6841 10.997C12.7138 11.0356 12.734 11.0806 12.7432 11.1284C12.7525 11.1762 12.7504 11.2254 12.7372 11.2723ZM11.8126 9.00001C11.6271 9.00001 11.4459 8.94503 11.2917 8.84202C11.1375 8.739 11.0174 8.59258 10.9464 8.42128C10.8755 8.24997 10.8569 8.06147 10.8931 7.87961C10.9292 7.69776 11.0185 7.53071 11.1496 7.3996C11.2808 7.26849 11.4478 7.1792 11.6297 7.14302C11.8115 7.10685 12 7.12542 12.1713 7.19637C12.3426 7.26733 12.489 7.38749 12.5921 7.54166C12.6951 7.69583 12.7501 7.87709 12.7501 8.06251C12.7504 8.18571 12.7263 8.30776 12.6793 8.42164C12.6323 8.53553 12.5633 8.639 12.4762 8.72611C12.389 8.81323 12.2856 8.88227 12.1717 8.92928C12.0578 8.97628 11.9358 9.00032 11.8126 9.00001Z" fill="#1A58E7"/>
</svg>
