<svg width="12" height="12" viewBox="0 0 12 12" fill="none" xmlns="http://www.w3.org/2000/svg">
<path d="M6 11.25C5.82437 11.2498 5.65287 11.1967 5.50781 11.0977C3.35887 9.63891 2.42836 8.63867 1.91512 8.01332C0.821366 6.68031 0.297733 5.31176 0.312498 3.82973C0.329725 2.13141 1.69226 0.75 3.34984 0.75C4.55515 0.75 5.38996 1.42895 5.87613 1.99441C5.89153 2.01215 5.91056 2.02637 5.93193 2.03611C5.9533 2.04585 5.97651 2.0509 6 2.0509C6.02349 2.0509 6.0467 2.04585 6.06807 2.03611C6.08944 2.02637 6.10847 2.01215 6.12387 1.99441C6.61004 1.4284 7.44484 0.75 8.65016 0.75C10.3077 0.75 11.6703 2.13141 11.6875 3.83C11.7023 5.3123 11.1781 6.68086 10.0849 8.01359C9.57164 8.63895 8.64113 9.63918 6.49219 11.098C6.3471 11.1969 6.1756 11.2499 6 11.25Z" fill="#F12653"/>
</svg>
