<svg width="18" height="18" viewBox="0 0 18 18" fill="none" xmlns="http://www.w3.org/2000/svg">
<path d="M7.51953 5.53008C7.51953 6.03789 7.51953 6.53008 7.67969 6.99102C5.99609 8.96758 1.55078 14.1902 1.13672 14.5887C1.05442 14.6625 0.988592 14.7528 0.943502 14.8538C0.898411 14.9547 0.875071 15.064 0.875 15.1746C0.875 15.5066 1.07812 15.827 1.25 16.0066C1.50781 16.2762 2.60937 17.2957 2.8125 17.1004C3.41406 16.5145 3.53516 16.3582 3.78125 16.116C4.15234 15.7527 3.74219 15.0105 3.87109 14.7098C4 14.409 4.13672 14.3504 4.35937 14.3035C4.58203 14.2566 4.97656 14.4168 5.28516 14.4207C5.60937 14.4246 5.78516 14.2879 6.02734 14.0613C6.22266 13.8816 6.36328 13.7137 6.36719 13.452C6.375 13.1004 5.86719 12.6355 6.24609 12.2645C6.625 11.8934 7.17187 12.5066 7.57422 12.4598C7.97656 12.4129 8.46484 11.8543 8.51563 11.616C8.56641 11.3777 8.05859 10.7645 8.13672 10.4168C8.16406 10.2996 8.40234 10.0262 8.58203 9.98711C8.76172 9.94805 9.55859 10.2566 9.73828 10.2176C9.95703 10.1707 10.2109 9.94023 10.418 9.81133C11.0234 10.073 11.5742 10.1785 12.2812 10.1785C14.957 10.1785 17.125 8.09258 17.125 5.52227C17.125 2.95195 14.957 0.875 12.2812 0.875C9.60547 0.875 7.51953 2.95977 7.51953 5.53008V5.53008ZM14.625 4.625C14.625 4.87223 14.5517 5.1139 14.4143 5.31946C14.277 5.52502 14.0818 5.68524 13.8534 5.77985C13.6249 5.87446 13.3736 5.89921 13.1311 5.85098C12.8887 5.80275 12.6659 5.6837 12.4911 5.50888C12.3163 5.33407 12.1972 5.11134 12.149 4.86886C12.1008 4.62639 12.1255 4.37505 12.2202 4.14665C12.3148 3.91824 12.475 3.72301 12.6805 3.58566C12.8861 3.44831 13.1278 3.375 13.375 3.375C13.7065 3.375 14.0245 3.5067 14.2589 3.74112C14.4933 3.97554 14.625 4.29348 14.625 4.625Z" stroke="#1A58E7" stroke-width="1.25" stroke-linejoin="round"/>
</svg>
