<svg width="31" height="31" viewBox="0 0 31 31" fill="none" xmlns="http://www.w3.org/2000/svg">
<path d="M25.1875 4.84375H5.8125C4.20742 4.84375 2.90625 6.14492 2.90625 7.75V23.25C2.90625 24.8551 4.20742 26.1562 5.8125 26.1562H25.1875C26.7926 26.1562 28.0938 24.8551 28.0938 23.25V7.75C28.0938 6.14492 26.7926 4.84375 25.1875 4.84375Z" stroke="#1A58E7" stroke-width="1.9375" stroke-linejoin="round"/>
<path d="M20.3438 12.5938C21.4138 12.5938 22.2812 11.7263 22.2812 10.6562C22.2812 9.5862 21.4138 8.71875 20.3438 8.71875C19.2737 8.71875 18.4062 9.5862 18.4062 10.6562C18.4062 11.7263 19.2737 12.5938 20.3438 12.5938Z" stroke="#1A58E7" stroke-width="1.9375" stroke-miterlimit="10"/>
<path d="M18.4062 20.331L12.9171 14.8521C12.5678 14.5029 12.0983 14.3003 11.6046 14.2856C11.1109 14.271 10.6302 14.4455 10.2609 14.7734L2.90625 21.3125M13.5625 26.1562L21.0304 18.6884C21.3719 18.3462 21.829 18.144 22.312 18.1216C22.7949 18.0992 23.2688 18.2582 23.6405 18.5673L28.0938 22.2812" stroke="#1A58E7" stroke-width="1.9375" stroke-linecap="round" stroke-linejoin="round"/>
</svg>
