<svg width="101" height="101" viewBox="0 0 101 101" fill="none" xmlns="http://www.w3.org/2000/svg">
<circle cx="50.5" cy="50.5" r="50" fill="white" stroke="#AEB4BA"/>
<path d="M32.5566 73.7681C18.1566 78.1681 15.5566 84.2681 16.0566 85.7681C38.0566 108 71.5 101 85 85.7681C84.2 82.5681 72.0566 72.9348 65.5566 70.7681C59.9566 68.3681 60.2233 61.4348 61.0566 58.2681L63.0566 54.7681C64.6566 51.5681 63.7233 50.1014 65.5566 48.7681C70.3566 45.9681 68.5566 42.6014 67.0566 41.2681C70.5566 23.2681 58.0566 18.7681 50.5566 20.2681C36.0566 20.2681 34.0566 33.9348 36.0566 41.2681C32.0566 46.0681 35.7233 49.2681 38.0566 50.2681C38.4566 54.6681 43.0566 58.2681 43.0566 61.7681C43.0566 71.5005 35.3899 73.4348 32.5566 73.7681Z" fill="#AEB4BA"/>
</svg>
