<svg width="20" height="20" viewBox="0 0 20 20" fill="none" xmlns="http://www.w3.org/2000/svg">
<path d="M10 1.875C6.89453 1.875 4.375 4.27305 4.375 7.22656C4.375 10.625 8.125 16.0105 9.50195 17.8707C9.55911 17.9492 9.63402 18.0131 9.72058 18.0572C9.80713 18.1012 9.90288 18.1242 10 18.1242C10.0971 18.1242 10.1929 18.1012 10.2794 18.0572C10.366 18.0131 10.4409 17.9492 10.498 17.8707C11.875 16.0113 15.625 10.6277 15.625 7.22656C15.625 4.27305 13.1055 1.875 10 1.875Z" stroke="#2A2B2F" stroke-width="1.5" stroke-linecap="round" stroke-linejoin="round"/>
<path d="M10 9.375C11.0355 9.375 11.875 8.53553 11.875 7.5C11.875 6.46447 11.0355 5.625 10 5.625C8.96447 5.625 8.125 6.46447 8.125 7.5C8.125 8.53553 8.96447 9.375 10 9.375Z" stroke="#2A2B2F" stroke-width="1.5" stroke-linecap="round" stroke-linejoin="round"/>
</svg>
