<svg width="25" height="25" viewBox="0 0 25 25" fill="none" xmlns="http://www.w3.org/2000/svg">
<path d="M12.5 14.8438C13.7944 14.8438 14.8438 13.7944 14.8438 12.5C14.8438 11.2056 13.7944 10.1562 12.5 10.1562C11.2056 10.1562 10.1562 11.2056 10.1562 12.5C10.1562 13.7944 11.2056 14.8438 12.5 14.8438Z" fill="#B1B1B1"/>
<path d="M20.3125 14.8438C21.6069 14.8438 22.6562 13.7944 22.6562 12.5C22.6562 11.2056 21.6069 10.1562 20.3125 10.1562C19.0181 10.1562 17.9688 11.2056 17.9688 12.5C17.9688 13.7944 19.0181 14.8438 20.3125 14.8438Z" fill="#B1B1B1"/>
<path d="M4.6875 14.8438C5.98192 14.8438 7.03125 13.7944 7.03125 12.5C7.03125 11.2056 5.98192 10.1562 4.6875 10.1562C3.39308 10.1562 2.34375 11.2056 2.34375 12.5C2.34375 13.7944 3.39308 14.8438 4.6875 14.8438Z" fill="#B1B1B1"/>
</svg>
