<svg width="18" height="18" viewBox="0 0 18 18" fill="none" xmlns="http://www.w3.org/2000/svg">
<path d="M9.24577 6.51211C8.73283 6.46145 8.21678 6.57057 7.76825 6.82454C7.31973 7.07851 6.96067 7.4649 6.74023 7.93082C6.51979 8.39673 6.44875 8.91939 6.53684 9.42724C6.62493 9.9351 6.86783 10.4033 7.2323 10.7678C7.59676 11.1322 8.06497 11.3751 8.57282 11.4632C9.08067 11.5513 9.60334 11.4803 10.0693 11.2598C10.5352 11.0394 10.9216 10.6803 11.1755 10.2318C11.4295 9.78329 11.5386 9.26723 11.488 8.7543C11.4302 8.17929 11.1754 7.64193 10.7668 7.23329C10.3581 6.82465 9.82078 6.56986 9.24577 6.51211V6.51211ZM15.2653 9C15.2637 9.27174 15.2437 9.54306 15.2055 9.81211L16.9716 11.1973C17.0485 11.261 17.1003 11.35 17.1178 11.4483C17.1353 11.5466 17.1174 11.648 17.0673 11.7344L15.3966 14.625C15.3458 14.7106 15.2665 14.7754 15.1726 14.8082C15.0787 14.841 14.9762 14.8396 14.8833 14.8043L13.1294 14.098C13.0326 14.0595 12.9279 14.0456 12.8245 14.0576C12.721 14.0695 12.6222 14.1069 12.5368 14.1664C12.2691 14.3507 11.9878 14.5145 11.6954 14.6562C11.6034 14.7009 11.5239 14.7676 11.4638 14.8503C11.4037 14.933 11.3649 15.0292 11.3508 15.1305L11.088 17.0012C11.0707 17.1 11.0197 17.1897 10.9436 17.255C10.8675 17.3204 10.771 17.3573 10.6708 17.3594H7.32936C7.23075 17.3577 7.13565 17.3224 7.05975 17.2594C6.98384 17.1965 6.93166 17.1095 6.91179 17.0129L6.64929 15.1449C6.63455 15.0426 6.59474 14.9454 6.53341 14.8621C6.47207 14.7789 6.39111 14.712 6.29772 14.6676C6.00562 14.5266 5.72529 14.3624 5.45944 14.1766C5.37432 14.1173 5.27581 14.0802 5.17277 14.0686C5.06973 14.0569 4.96541 14.0711 4.86921 14.1098L3.11569 14.8156C3.02277 14.851 2.92033 14.8525 2.82644 14.8197C2.73254 14.787 2.65321 14.7222 2.60241 14.6367L0.931708 11.7461C0.881478 11.6597 0.863529 11.5583 0.881054 11.46C0.89858 11.3616 0.950443 11.2727 1.02741 11.209L2.51999 10.0371C2.60176 9.9722 2.66603 9.88789 2.70696 9.79185C2.74789 9.6958 2.76418 9.59105 2.75436 9.48711C2.7403 9.32422 2.73171 9.16172 2.73171 8.99883C2.73171 8.83594 2.73991 8.67578 2.75436 8.51641C2.76311 8.4131 2.74601 8.30924 2.70462 8.21418C2.66323 8.11912 2.59884 8.03585 2.51725 7.97187L1.02546 6.8C0.949739 6.73597 0.898969 6.64734 0.882042 6.54964C0.865115 6.45194 0.883112 6.35139 0.93288 6.26562L2.60358 3.375C2.65432 3.28945 2.73363 3.22455 2.82753 3.19175C2.92143 3.15895 3.02389 3.16035 3.11686 3.1957L4.87077 3.90195C4.96749 3.94046 5.07225 3.95438 5.17567 3.94245C5.27909 3.93052 5.37794 3.89311 5.46335 3.83359C5.73103 3.64927 6.0123 3.48552 6.30476 3.34375C6.3967 3.29906 6.47623 3.23242 6.53631 3.14972C6.5964 3.06701 6.6352 2.97078 6.64929 2.86953L6.91218 0.998828C6.92944 0.900032 6.98049 0.810299 7.05658 0.744964C7.13267 0.679629 7.22909 0.642748 7.32936 0.640625H10.6708C10.7694 0.642331 10.8645 0.677578 10.9404 0.74056C11.0163 0.803542 11.0685 0.8905 11.0883 0.987109L11.3508 2.85508C11.3656 2.95745 11.4054 3.05459 11.4667 3.13787C11.5281 3.22114 11.609 3.28798 11.7024 3.33242C11.9945 3.47342 12.2748 3.63762 12.5407 3.82344C12.6258 3.88266 12.7243 3.91978 12.8274 3.93144C12.9304 3.9431 13.0347 3.92894 13.1309 3.89023L14.8844 3.18438C14.9774 3.14899 15.0798 3.14753 15.1737 3.18026C15.2676 3.21299 15.3469 3.2778 15.3977 3.36328L17.0684 6.25391C17.1187 6.34027 17.1366 6.44165 17.1191 6.54001C17.1016 6.63837 17.0497 6.72732 16.9727 6.79102L15.4801 7.96289C15.398 8.02759 15.3334 8.1118 15.2921 8.20786C15.2508 8.30392 15.2342 8.40878 15.2438 8.51289C15.2567 8.67461 15.2653 8.83711 15.2653 9Z" stroke="black" stroke-width="1.25" stroke-linecap="round" stroke-linejoin="round"/>
</svg>
