<svg width="20" height="18" viewBox="0 0 20 18" fill="none" xmlns="http://www.w3.org/2000/svg">
<path d="M18.6168 7.86912L18.6105 7.86638L1.92773 0.946851C1.78741 0.888119 1.63472 0.865086 1.48332 0.87981C1.33192 0.894534 1.18653 0.946558 1.06016 1.03123C0.926639 1.11871 0.816966 1.23802 0.741006 1.37842C0.665046 1.51882 0.625182 1.67589 0.625 1.83552V6.26091C0.625074 6.47914 0.701273 6.6905 0.840463 6.85857C0.979653 7.02663 1.17311 7.14088 1.3875 7.18162L10.4863 8.86404C10.5221 8.87082 10.5543 8.88986 10.5776 8.91789C10.6008 8.94591 10.6135 8.98116 10.6135 9.01756C10.6135 9.05395 10.6008 9.0892 10.5776 9.11722C10.5543 9.14525 10.5221 9.16429 10.4863 9.17107L1.38789 10.8535C1.17356 10.8941 0.980115 11.0082 0.840862 11.1761C0.70161 11.3441 0.625273 11.5553 0.625 11.7734V16.1996C0.624896 16.352 0.662638 16.5021 0.734839 16.6363C0.80704 16.7706 0.91144 16.8848 1.03867 16.9687C1.19172 17.0704 1.37133 17.1248 1.55508 17.125C1.68282 17.1249 1.80925 17.0992 1.92695 17.0496L18.6094 10.1695L18.6168 10.166C18.8414 10.0695 19.0327 9.90926 19.1671 9.70515C19.3016 9.50103 19.3732 9.26197 19.3732 9.01756C19.3732 8.77314 19.3016 8.53408 19.1671 8.32996C19.0327 8.12585 18.8414 7.96562 18.6168 7.86912Z" fill="#1A58E7"/>
</svg>
