<svg xmlns="http://www.w3.org/2000/svg" width="8.17" height="8.799" viewBox="0 0 8.17 8.799">
	<g id="Upload" transform="translate(-0.719)">
		<g id="Group_77"  transform="translate(0.719 5.656)">
			<g id="Group_76" >
				<path id="Path_779"  d="M24.922,307.2a.314.314,0,0,0-.314.314V309.4a.314.314,0,0,1-.314.314H18.009a.314.314,0,0,1-.314-.314v-1.885a.314.314,0,1,0-.629,0V309.4a.943.943,0,0,0,.943.943h6.285a.943.943,0,0,0,.943-.943v-1.885A.314.314,0,0,0,24.922,307.2Z" transform="translate(-17.066 -307.2)"/>
			</g>
		</g>
		<path id="Path_780" d="M3.668,5.434a.314.314,0,0,0-.437,0L2.2,6.469V.314a.314.314,0,1,0-.629,0V6.469L.533,5.434a.314.314,0,0,0-.444.444L1.659,7.45a.314.314,0,0,0,.444,0h0L3.676,5.879A.314.314,0,0,0,3.668,5.434Z" transform="translate(6.484 7.542) rotate(180)"/>
	</g>
</svg>
