<svg width="25" height="25" viewBox="0 0 25 25" fill="none" xmlns="http://www.w3.org/2000/svg">
<path d="M12.5 24.2812C19.0063 24.2812 24.2812 19.0063 24.2812 12.5C24.2812 5.99369 19.0063 0.71875 12.5 0.71875C5.99369 0.71875 0.71875 5.99369 0.71875 12.5C0.71875 19.0063 5.99369 24.2812 12.5 24.2812ZM10.5 7.70311C10.4123 7.61979 10.3422 7.51976 10.2938 7.40891C10.2453 7.29807 10.2196 7.17865 10.218 7.0577C10.2165 6.93674 10.2392 6.8167 10.2847 6.70465C10.3303 6.5926 10.3979 6.49081 10.4834 6.40528C10.5689 6.31974 10.6707 6.2522 10.7828 6.20662C10.8948 6.16105 11.0149 6.13837 11.1358 6.13992C11.2568 6.14147 11.3762 6.16721 11.487 6.21564C11.5979 6.26407 11.6979 6.3342 11.7812 6.42189L17.2187 11.8594C17.3886 12.0293 17.484 12.2598 17.484 12.5C17.484 12.7402 17.3886 12.9707 17.2187 13.1406L11.7812 18.5781C11.6099 18.7409 11.3817 18.8303 11.1454 18.8273C10.9091 18.8242 10.6833 18.729 10.5162 18.5619C10.3491 18.3948 10.2539 18.169 10.2509 17.9327C10.2478 17.6964 10.3372 17.4682 10.5 17.2969L15.2963 12.5L10.5 7.70311Z" fill="white"/>
</svg>
