<svg width="32" height="32" viewBox="0 0 32 32" fill="none" xmlns="http://www.w3.org/2000/svg">
<g filter="url(#filter0_b)">
<circle cx="16" cy="16" r="15.25" stroke="#DFE1E4" stroke-width="1.5"/>
</g>
<g filter="url(#filter1_b)">
<mask id="path-2-inside-1" fill="white">
<path d="M0.715742 20.732C1.59021 23.5565 3.23027 26.0835 5.45388 28.0324C7.67749 29.9814 10.3977 31.276 13.3125 31.7727C16.2273 32.2693 19.2227 31.9486 21.9663 30.846C24.7098 29.7434 27.0942 27.9022 28.8547 25.5266C30.6153 23.151 31.6831 20.3341 31.9396 17.3884C32.1962 14.4427 31.6315 11.4836 30.3082 8.83939C28.9849 6.19521 26.9548 3.96944 24.4432 2.40912C21.9316 0.8488 19.0367 0.0149771 16.08 0.000199817L16.0725 1.48629C18.7547 1.49969 21.3807 2.25607 23.659 3.67146C25.9373 5.08685 27.7789 7.1059 28.9793 9.50448C30.1796 11.9031 30.6919 14.5874 30.4591 17.2594C30.2264 19.9315 29.2578 22.4868 27.6608 24.6417C26.0638 26.7967 23.9009 28.4669 21.4121 29.4671C18.9234 30.4672 16.2062 30.7582 13.5621 30.3077C10.918 29.8572 8.4505 28.6828 6.43342 26.9148C4.41635 25.1469 2.92862 22.8546 2.13537 20.2924L0.715742 20.732Z"/>
</mask>
<path d="M0.715742 20.732C1.59021 23.5565 3.23027 26.0835 5.45388 28.0324C7.67749 29.9814 10.3977 31.276 13.3125 31.7727C16.2273 32.2693 19.2227 31.9486 21.9663 30.846C24.7098 29.7434 27.0942 27.9022 28.8547 25.5266C30.6153 23.151 31.6831 20.3341 31.9396 17.3884C32.1962 14.4427 31.6315 11.4836 30.3082 8.83939C28.9849 6.19521 26.9548 3.96944 24.4432 2.40912C21.9316 0.8488 19.0367 0.0149771 16.08 0.000199817L16.0725 1.48629C18.7547 1.49969 21.3807 2.25607 23.659 3.67146C25.9373 5.08685 27.7789 7.1059 28.9793 9.50448C30.1796 11.9031 30.6919 14.5874 30.4591 17.2594C30.2264 19.9315 29.2578 22.4868 27.6608 24.6417C26.0638 26.7967 23.9009 28.4669 21.4121 29.4671C18.9234 30.4672 16.2062 30.7582 13.5621 30.3077C10.918 29.8572 8.4505 28.6828 6.43342 26.9148C4.41635 25.1469 2.92862 22.8546 2.13537 20.2924L0.715742 20.732Z" stroke="#338BEF" stroke-width="3" mask="url(#path-2-inside-1)"/>
</g>
<path d="M15.1 20.74V11.26C15.1 10.36 14.72 10 13.76 10H11.34C10.38 10 10 10.36 10 11.26V20.74C10 21.64 10.38 22 11.34 22H13.76C14.72 22 15.1 21.64 15.1 20.74Z" fill="#338BEF"/>
<path d="M21.9999 20.74V11.26C21.9999 10.36 21.6199 10 20.6599 10H18.2399C17.2866 10 16.8999 10.36 16.8999 11.26V20.74C16.8999 21.64 17.2799 22 18.2399 22H20.6599C21.6199 22 21.9999 21.64 21.9999 20.74Z" fill="#338BEF"/>
<defs>
<filter id="filter0_b" x="-25" y="-25" width="82" height="82" filterUnits="userSpaceOnUse" color-interpolation-filters="sRGB">
<feFlood flood-opacity="0" result="BackgroundImageFix"/>
<feGaussianBlur in="BackgroundImage" stdDeviation="12.5"/>
<feComposite in2="SourceAlpha" operator="in" result="effect1_backgroundBlur"/>
<feBlend mode="normal" in="SourceGraphic" in2="effect1_backgroundBlur" result="shape"/>
</filter>
<filter id="filter1_b" x="-24.2842" y="-24.9998" width="81.2843" height="81.9998" filterUnits="userSpaceOnUse" color-interpolation-filters="sRGB">
<feFlood flood-opacity="0" result="BackgroundImageFix"/>
<feGaussianBlur in="BackgroundImage" stdDeviation="12.5"/>
<feComposite in2="SourceAlpha" operator="in" result="effect1_backgroundBlur"/>
<feBlend mode="normal" in="SourceGraphic" in2="effect1_backgroundBlur" result="shape"/>
</filter>
</defs>
</svg>
