<svg width="16" height="17" viewBox="0 0 16 17" fill="none" xmlns="http://www.w3.org/2000/svg">
<g clip-path="url(#clip0)">
<path d="M12 15.4167C13.1046 15.4167 14 14.5213 14 13.4167C14 12.3122 13.1046 11.4167 12 11.4167C10.8954 11.4167 10 12.3122 10 13.4167C10 14.5213 10.8954 15.4167 12 15.4167Z" stroke="#338BEF" stroke-width="1.5" stroke-linecap="round" stroke-linejoin="round"/>
<path d="M4 10.75C5.10457 10.75 6 9.85457 6 8.75C6 7.64543 5.10457 6.75 4 6.75C2.89543 6.75 2 7.64543 2 8.75C2 9.85457 2.89543 10.75 4 10.75Z" stroke="#338BEF" stroke-width="1.5" stroke-linecap="round" stroke-linejoin="round"/>
<path d="M5.72656 9.75659L10.2799 12.4099" stroke="#338BEF" stroke-width="1.5" stroke-linecap="round" stroke-linejoin="round"/>
<path d="M12 6.08325C13.1046 6.08325 14 5.18782 14 4.08325C14 2.97868 13.1046 2.08325 12 2.08325C10.8954 2.08325 10 2.97868 10 4.08325C10 5.18782 10.8954 6.08325 12 6.08325Z" stroke="#338BEF" stroke-width="1.5" stroke-linecap="round" stroke-linejoin="round"/>
<path d="M10.2732 5.08984L5.72656 7.74318" stroke="#338BEF" stroke-width="1.5" stroke-linecap="round" stroke-linejoin="round"/>
</g>
<defs>
<clipPath id="clip0">
<rect width="16" height="16" fill="white" transform="translate(0 0.75)"/>
</clipPath>
</defs>
</svg>
