<svg width="383" height="185" viewBox="0 0 383 185" fill="none" xmlns="http://www.w3.org/2000/svg">
<path d="M25.9612 120C19.1762 120 13.5666 118.431 9.13227 115.293C4.7514 112.102 2.37398 107.448 2 101.331H20.9125C21.1797 104.576 22.6221 106.198 25.24 106.198C26.2016 106.198 27.003 105.985 27.6441 105.56C28.3386 105.081 28.6859 104.363 28.6859 103.406C28.6859 102.076 27.9647 101.012 26.5222 100.215C25.0797 99.3636 22.8358 98.4062 19.7906 97.3425C16.1577 96.066 13.1392 94.8161 10.735 93.5928C8.38431 92.3696 6.35416 90.5878 4.64455 88.2476C2.93494 85.9074 2.10685 82.9023 2.16028 79.2325C2.16028 75.5626 3.09522 72.4512 4.9651 69.8982C6.88841 67.2921 9.47953 65.3242 12.7385 63.9945C16.0508 62.6648 19.7639 62 23.8776 62C30.8229 62 36.3257 63.5956 40.386 66.7868C44.4998 69.978 46.6635 74.4723 46.8772 80.2696H27.7242C27.6708 78.674 27.2701 77.5305 26.5222 76.8391C25.7742 76.1476 24.866 75.8019 23.7975 75.8019C23.0495 75.8019 22.4351 76.0679 21.9543 76.5997C21.4735 77.0784 21.2331 77.7698 21.2331 78.674C21.2331 79.9505 21.9276 81.0142 23.3167 81.8652C24.7591 82.663 27.0297 83.6469 30.1284 84.8171C33.7079 86.1467 36.6463 87.4232 38.9435 88.6465C41.2943 89.8698 43.3244 91.5718 45.034 93.7524C46.7436 95.9331 47.5984 98.6722 47.5984 101.97C47.5984 105.427 46.7436 108.538 45.034 111.304C43.3244 114.016 40.8401 116.144 37.5812 117.686C34.3223 119.229 30.4489 120 25.9612 120Z" fill="white"/>
<path d="M81.4967 120C76.1542 120 71.2391 118.75 66.7514 116.25C62.3171 113.751 58.791 110.293 56.1732 105.879C53.5553 101.464 52.2464 96.4915 52.2464 90.9601C52.2464 85.4287 53.5553 80.4558 56.1732 76.0413C58.791 71.6268 62.3171 68.1962 66.7514 65.7497C71.2391 63.2499 76.1542 62 81.4967 62C86.8393 62 91.7277 63.2499 96.162 65.7497C100.596 68.1962 104.096 71.6268 106.66 76.0413C109.278 80.4558 110.587 85.4287 110.587 90.9601C110.587 96.4915 109.278 101.464 106.66 105.879C104.096 110.293 100.57 113.751 96.0818 116.25C91.6475 118.75 86.7858 120 81.4967 120ZM81.4967 103.486C85.0228 103.486 87.7475 102.369 89.6708 100.135C91.5941 97.8478 92.5558 94.7895 92.5558 90.9601C92.5558 87.0775 91.5941 84.0193 89.6708 81.7854C87.7475 79.4984 85.0228 78.3549 81.4967 78.3549C77.9172 78.3549 75.1658 79.4984 73.2425 81.7854C71.3192 84.0193 70.3576 87.0775 70.3576 90.9601C70.3576 94.7895 71.3192 97.8478 73.2425 100.135C75.1658 102.369 77.9172 103.486 81.4967 103.486Z" fill="white"/>
<path d="M134.795 106.039H151.945V119.442H117.005V62.9574H134.795V106.039Z" fill="white"/>
<path d="M179.741 120C172.956 120 167.347 118.431 162.912 115.293C158.532 112.102 156.154 107.448 155.78 101.331H174.693C174.96 104.576 176.402 106.198 179.02 106.198C179.982 106.198 180.783 105.985 181.424 105.56C182.119 105.081 182.466 104.363 182.466 103.406C182.466 102.076 181.745 101.012 180.302 100.215C178.86 99.3636 176.616 98.4062 173.571 97.3425C169.938 96.066 166.919 94.8161 164.515 93.5928C162.164 92.3696 160.134 90.5878 158.425 88.2476C156.715 85.9074 155.887 82.9023 155.94 79.2325C155.94 75.5626 156.875 72.4512 158.745 69.8982C160.669 67.2921 163.26 65.3242 166.519 63.9945C169.831 62.6648 173.544 62 177.658 62C184.603 62 190.106 63.5956 194.166 66.7868C198.28 69.978 200.444 74.4723 200.657 80.2696H181.504C181.451 78.674 181.05 77.5305 180.302 76.8391C179.554 76.1476 178.646 75.8019 177.578 75.8019C176.83 75.8019 176.215 76.0679 175.734 76.5997C175.254 77.0784 175.013 77.7698 175.013 78.674C175.013 79.9505 175.708 81.0142 177.097 81.8652C178.539 82.663 180.81 83.6469 183.908 84.8171C187.488 86.1467 190.426 87.4232 192.724 88.6465C195.074 89.8698 197.105 91.5718 198.814 93.7524C200.524 95.9331 201.379 98.6722 201.379 101.97C201.379 105.427 200.524 108.538 198.814 111.304C197.105 114.016 194.62 116.144 191.361 117.686C188.102 119.229 184.229 120 179.741 120Z" fill="white"/>
<path d="M252.186 62.9574V76.9986H237.12V119.442H219.329V76.9986H204.424V62.9574H252.186Z" fill="white"/>
<path d="M274.802 62.9574V119.442H257.011V62.9574H274.802Z" fill="white"/>
<path d="M281.234 91.1197C281.234 85.5351 282.356 80.5621 284.6 76.2008C286.897 71.8395 290.156 68.4622 294.377 66.0688C298.597 63.6222 303.566 62.3989 309.282 62.3989C314.197 62.3989 318.578 63.3297 322.425 65.1912C326.325 66.9995 329.477 69.5791 331.881 72.9298C334.339 76.2806 335.968 80.1898 336.77 84.6575H318.017C317.162 82.796 315.934 81.3599 314.331 80.3494C312.782 79.2856 310.992 78.7538 308.962 78.7538C305.97 78.7538 303.592 79.8707 301.829 82.1045C300.12 84.3384 299.265 87.3434 299.265 91.1197C299.265 94.8959 300.12 97.901 301.829 100.135C303.592 102.369 305.97 103.486 308.962 103.486C310.992 103.486 312.782 102.98 314.331 101.97C315.934 100.906 317.162 99.4434 318.017 97.5818H336.77C335.968 102.05 334.339 105.959 331.881 109.309C329.477 112.66 326.325 115.266 322.425 117.128C318.578 118.936 314.197 119.84 309.282 119.84C303.566 119.84 298.597 118.644 294.377 116.25C290.156 113.804 286.897 110.4 284.6 106.039C282.356 101.677 281.234 96.7043 281.234 91.1197Z" fill="white"/>
<path d="M360.966 77.0784V84.0193H378.596V97.3425H360.966V105.32H381V119.442H343.175V62.9574H381V77.0784H360.966Z" fill="white"/>
<mask id="path-2-outside-1" maskUnits="userSpaceOnUse" x="0" y="123" width="383" height="62" fill="black">
<rect fill="white" y="123" width="383" height="62"/>
<path d="M25.9612 183C19.1762 183 13.5666 181.431 9.13227 178.293C4.7514 175.102 2.37398 170.448 2 164.331H20.9125C21.1797 167.576 22.6221 169.198 25.24 169.198C26.2016 169.198 27.003 168.985 27.6441 168.56C28.3386 168.081 28.6859 167.363 28.6859 166.406C28.6859 165.076 27.9647 164.012 26.5222 163.215C25.0797 162.364 22.8358 161.406 19.7906 160.342C16.1577 159.066 13.1392 157.816 10.735 156.593C8.38431 155.37 6.35416 153.588 4.64455 151.248C2.93494 148.907 2.10685 145.902 2.16028 142.232C2.16028 138.563 3.09522 135.451 4.9651 132.898C6.88841 130.292 9.47953 128.324 12.7385 126.994C16.0508 125.665 19.7639 125 23.8776 125C30.8229 125 36.3257 126.596 40.386 129.787C44.4998 132.978 46.6635 137.472 46.8772 143.27H27.7242C27.6708 141.674 27.2701 140.53 26.5222 139.839C25.7742 139.148 24.866 138.802 23.7975 138.802C23.0495 138.802 22.4351 139.068 21.9543 139.6C21.4735 140.078 21.2331 140.77 21.2331 141.674C21.2331 142.95 21.9276 144.014 23.3167 144.865C24.7591 145.663 27.0297 146.647 30.1284 147.817C33.7079 149.147 36.6463 150.423 38.9435 151.646C41.2943 152.87 43.3244 154.572 45.034 156.752C46.7436 158.933 47.5984 161.672 47.5984 164.97C47.5984 168.427 46.7436 171.538 45.034 174.304C43.3244 177.016 40.8401 179.144 37.5812 180.686C34.3223 182.229 30.4489 183 25.9612 183Z"/>
<path d="M81.4967 183C76.1542 183 71.2391 181.75 66.7514 179.25C62.3171 176.751 58.791 173.293 56.1732 168.879C53.5553 164.464 52.2464 159.492 52.2464 153.96C52.2464 148.429 53.5553 143.456 56.1732 139.041C58.791 134.627 62.3171 131.196 66.7514 128.75C71.2391 126.25 76.1542 125 81.4967 125C86.8393 125 91.7277 126.25 96.162 128.75C100.596 131.196 104.096 134.627 106.66 139.041C109.278 143.456 110.587 148.429 110.587 153.96C110.587 159.492 109.278 164.464 106.66 168.879C104.096 173.293 100.57 176.751 96.0818 179.25C91.6475 181.75 86.7858 183 81.4967 183ZM81.4967 166.486C85.0228 166.486 87.7475 165.369 89.6708 163.135C91.5941 160.848 92.5558 157.79 92.5558 153.96C92.5558 150.077 91.5941 147.019 89.6708 144.785C87.7475 142.498 85.0228 141.355 81.4967 141.355C77.9172 141.355 75.1658 142.498 73.2425 144.785C71.3192 147.019 70.3576 150.077 70.3576 153.96C70.3576 157.79 71.3192 160.848 73.2425 163.135C75.1658 165.369 77.9172 166.486 81.4967 166.486Z"/>
<path d="M134.795 169.039H151.945V182.442H117.005V125.957H134.795V169.039Z"/>
<path d="M179.741 183C172.956 183 167.347 181.431 162.912 178.293C158.532 175.102 156.154 170.448 155.78 164.331H174.693C174.96 167.576 176.402 169.198 179.02 169.198C179.982 169.198 180.783 168.985 181.424 168.56C182.119 168.081 182.466 167.363 182.466 166.406C182.466 165.076 181.745 164.012 180.302 163.215C178.86 162.364 176.616 161.406 173.571 160.342C169.938 159.066 166.919 157.816 164.515 156.593C162.164 155.37 160.134 153.588 158.425 151.248C156.715 148.907 155.887 145.902 155.94 142.232C155.94 138.563 156.875 135.451 158.745 132.898C160.669 130.292 163.26 128.324 166.519 126.994C169.831 125.665 173.544 125 177.658 125C184.603 125 190.106 126.596 194.166 129.787C198.28 132.978 200.444 137.472 200.657 143.27H181.504C181.451 141.674 181.05 140.53 180.302 139.839C179.554 139.148 178.646 138.802 177.578 138.802C176.83 138.802 176.215 139.068 175.734 139.6C175.254 140.078 175.013 140.77 175.013 141.674C175.013 142.95 175.708 144.014 177.097 144.865C178.539 145.663 180.81 146.647 183.908 147.817C187.488 149.147 190.426 150.423 192.724 151.646C195.074 152.87 197.105 154.572 198.814 156.752C200.524 158.933 201.379 161.672 201.379 164.97C201.379 168.427 200.524 171.538 198.814 174.304C197.105 177.016 194.62 179.144 191.361 180.686C188.102 182.229 184.229 183 179.741 183Z"/>
<path d="M252.186 125.957V139.999H237.12V182.442H219.329V139.999H204.424V125.957H252.186Z"/>
<path d="M274.802 125.957V182.442H257.011V125.957H274.802Z"/>
<path d="M281.234 154.12C281.234 148.535 282.356 143.562 284.6 139.201C286.897 134.84 290.156 131.462 294.377 129.069C298.597 126.622 303.566 125.399 309.282 125.399C314.197 125.399 318.578 126.33 322.425 128.191C326.325 130 329.477 132.579 331.881 135.93C334.339 139.281 335.968 143.19 336.77 147.657H318.017C317.162 145.796 315.934 144.36 314.331 143.349C312.782 142.286 310.992 141.754 308.962 141.754C305.97 141.754 303.592 142.871 301.829 145.105C300.12 147.338 299.265 150.343 299.265 154.12C299.265 157.896 300.12 160.901 301.829 163.135C303.592 165.369 305.97 166.486 308.962 166.486C310.992 166.486 312.782 165.98 314.331 164.97C315.934 163.906 317.162 162.443 318.017 160.582H336.77C335.968 165.05 334.339 168.959 331.881 172.309C329.477 175.66 326.325 178.266 322.425 180.128C318.578 181.936 314.197 182.84 309.282 182.84C303.566 182.84 298.597 181.644 294.377 179.25C290.156 176.804 286.897 173.4 284.6 169.039C282.356 164.677 281.234 159.704 281.234 154.12Z"/>
<path d="M360.966 140.078V147.019H378.596V160.342H360.966V168.32H381V182.442H343.175V125.957H381V140.078H360.966Z"/>
</mask>
<path d="M25.9612 183C19.1762 183 13.5666 181.431 9.13227 178.293C4.7514 175.102 2.37398 170.448 2 164.331H20.9125C21.1797 167.576 22.6221 169.198 25.24 169.198C26.2016 169.198 27.003 168.985 27.6441 168.56C28.3386 168.081 28.6859 167.363 28.6859 166.406C28.6859 165.076 27.9647 164.012 26.5222 163.215C25.0797 162.364 22.8358 161.406 19.7906 160.342C16.1577 159.066 13.1392 157.816 10.735 156.593C8.38431 155.37 6.35416 153.588 4.64455 151.248C2.93494 148.907 2.10685 145.902 2.16028 142.232C2.16028 138.563 3.09522 135.451 4.9651 132.898C6.88841 130.292 9.47953 128.324 12.7385 126.994C16.0508 125.665 19.7639 125 23.8776 125C30.8229 125 36.3257 126.596 40.386 129.787C44.4998 132.978 46.6635 137.472 46.8772 143.27H27.7242C27.6708 141.674 27.2701 140.53 26.5222 139.839C25.7742 139.148 24.866 138.802 23.7975 138.802C23.0495 138.802 22.4351 139.068 21.9543 139.6C21.4735 140.078 21.2331 140.77 21.2331 141.674C21.2331 142.95 21.9276 144.014 23.3167 144.865C24.7591 145.663 27.0297 146.647 30.1284 147.817C33.7079 149.147 36.6463 150.423 38.9435 151.646C41.2943 152.87 43.3244 154.572 45.034 156.752C46.7436 158.933 47.5984 161.672 47.5984 164.97C47.5984 168.427 46.7436 171.538 45.034 174.304C43.3244 177.016 40.8401 179.144 37.5812 180.686C34.3223 182.229 30.4489 183 25.9612 183Z" stroke="white" stroke-width="2.16" mask="url(#path-2-outside-1)"/>
<path d="M81.4967 183C76.1542 183 71.2391 181.75 66.7514 179.25C62.3171 176.751 58.791 173.293 56.1732 168.879C53.5553 164.464 52.2464 159.492 52.2464 153.96C52.2464 148.429 53.5553 143.456 56.1732 139.041C58.791 134.627 62.3171 131.196 66.7514 128.75C71.2391 126.25 76.1542 125 81.4967 125C86.8393 125 91.7277 126.25 96.162 128.75C100.596 131.196 104.096 134.627 106.66 139.041C109.278 143.456 110.587 148.429 110.587 153.96C110.587 159.492 109.278 164.464 106.66 168.879C104.096 173.293 100.57 176.751 96.0818 179.25C91.6475 181.75 86.7858 183 81.4967 183ZM81.4967 166.486C85.0228 166.486 87.7475 165.369 89.6708 163.135C91.5941 160.848 92.5558 157.79 92.5558 153.96C92.5558 150.077 91.5941 147.019 89.6708 144.785C87.7475 142.498 85.0228 141.355 81.4967 141.355C77.9172 141.355 75.1658 142.498 73.2425 144.785C71.3192 147.019 70.3576 150.077 70.3576 153.96C70.3576 157.79 71.3192 160.848 73.2425 163.135C75.1658 165.369 77.9172 166.486 81.4967 166.486Z" stroke="white" stroke-width="2.16" mask="url(#path-2-outside-1)"/>
<path d="M134.795 169.039H151.945V182.442H117.005V125.957H134.795V169.039Z" stroke="white" stroke-width="2.16" mask="url(#path-2-outside-1)"/>
<path d="M179.741 183C172.956 183 167.347 181.431 162.912 178.293C158.532 175.102 156.154 170.448 155.78 164.331H174.693C174.96 167.576 176.402 169.198 179.02 169.198C179.982 169.198 180.783 168.985 181.424 168.56C182.119 168.081 182.466 167.363 182.466 166.406C182.466 165.076 181.745 164.012 180.302 163.215C178.86 162.364 176.616 161.406 173.571 160.342C169.938 159.066 166.919 157.816 164.515 156.593C162.164 155.37 160.134 153.588 158.425 151.248C156.715 148.907 155.887 145.902 155.94 142.232C155.94 138.563 156.875 135.451 158.745 132.898C160.669 130.292 163.26 128.324 166.519 126.994C169.831 125.665 173.544 125 177.658 125C184.603 125 190.106 126.596 194.166 129.787C198.28 132.978 200.444 137.472 200.657 143.27H181.504C181.451 141.674 181.05 140.53 180.302 139.839C179.554 139.148 178.646 138.802 177.578 138.802C176.83 138.802 176.215 139.068 175.734 139.6C175.254 140.078 175.013 140.77 175.013 141.674C175.013 142.95 175.708 144.014 177.097 144.865C178.539 145.663 180.81 146.647 183.908 147.817C187.488 149.147 190.426 150.423 192.724 151.646C195.074 152.87 197.105 154.572 198.814 156.752C200.524 158.933 201.379 161.672 201.379 164.97C201.379 168.427 200.524 171.538 198.814 174.304C197.105 177.016 194.62 179.144 191.361 180.686C188.102 182.229 184.229 183 179.741 183Z" stroke="white" stroke-width="2.16" mask="url(#path-2-outside-1)"/>
<path d="M252.186 125.957V139.999H237.12V182.442H219.329V139.999H204.424V125.957H252.186Z" stroke="white" stroke-width="2.16" mask="url(#path-2-outside-1)"/>
<path d="M274.802 125.957V182.442H257.011V125.957H274.802Z" stroke="white" stroke-width="2.16" mask="url(#path-2-outside-1)"/>
<path d="M281.234 154.12C281.234 148.535 282.356 143.562 284.6 139.201C286.897 134.84 290.156 131.462 294.377 129.069C298.597 126.622 303.566 125.399 309.282 125.399C314.197 125.399 318.578 126.33 322.425 128.191C326.325 130 329.477 132.579 331.881 135.93C334.339 139.281 335.968 143.19 336.77 147.657H318.017C317.162 145.796 315.934 144.36 314.331 143.349C312.782 142.286 310.992 141.754 308.962 141.754C305.97 141.754 303.592 142.871 301.829 145.105C300.12 147.338 299.265 150.343 299.265 154.12C299.265 157.896 300.12 160.901 301.829 163.135C303.592 165.369 305.97 166.486 308.962 166.486C310.992 166.486 312.782 165.98 314.331 164.97C315.934 163.906 317.162 162.443 318.017 160.582H336.77C335.968 165.05 334.339 168.959 331.881 172.309C329.477 175.66 326.325 178.266 322.425 180.128C318.578 181.936 314.197 182.84 309.282 182.84C303.566 182.84 298.597 181.644 294.377 179.25C290.156 176.804 286.897 173.4 284.6 169.039C282.356 164.677 281.234 159.704 281.234 154.12Z" stroke="white" stroke-width="2.16" mask="url(#path-2-outside-1)"/>
<path d="M360.966 140.078V147.019H378.596V160.342H360.966V168.32H381V182.442H343.175V125.957H381V140.078H360.966Z" stroke="white" stroke-width="2.16" mask="url(#path-2-outside-1)"/>
<mask id="path-3-outside-2" maskUnits="userSpaceOnUse" x="0" y="0" width="383" height="62" fill="black">
<rect fill="white" width="383" height="62"/>
<path d="M25.9612 60C19.1762 60 13.5666 58.431 9.13227 55.293C4.7514 52.1018 2.37398 47.448 2 41.3315H20.9125C21.1797 44.5759 22.6221 46.1981 25.24 46.1981C26.2016 46.1981 27.003 45.9853 27.6441 45.5598C28.3386 45.0812 28.6859 44.3631 28.6859 43.4058C28.6859 42.0761 27.9647 41.0124 26.5222 40.2146C25.0797 39.3636 22.8358 38.4062 19.7906 37.3425C16.1577 36.066 13.1392 34.8161 10.735 33.5928C8.38431 32.3696 6.35416 30.5878 4.64455 28.2476C2.93494 25.9074 2.10685 22.9023 2.16028 19.2325C2.16028 15.5626 3.09522 12.4512 4.9651 9.89821C6.88841 7.29207 9.47953 5.32417 12.7385 3.9945C16.0508 2.66483 19.7639 2 23.8776 2C30.8229 2 36.3257 3.5956 40.386 6.78679C44.4998 9.97799 46.6635 14.4723 46.8772 20.2696H27.7242C27.6708 18.674 27.2701 17.5305 26.5222 16.8391C25.7742 16.1476 24.866 15.8019 23.7975 15.8019C23.0495 15.8019 22.4351 16.0679 21.9543 16.5997C21.4735 17.0784 21.2331 17.7698 21.2331 18.674C21.2331 19.9505 21.9276 21.0142 23.3167 21.8652C24.7591 22.663 27.0297 23.6469 30.1284 24.8171C33.7079 26.1467 36.6463 27.4232 38.9435 28.6465C41.2943 29.8698 43.3244 31.5718 45.034 33.7524C46.7436 35.9331 47.5984 38.6722 47.5984 41.9697C47.5984 45.4269 46.7436 48.5383 45.034 51.304C43.3244 54.0165 40.8401 56.144 37.5812 57.6864C34.3223 59.2288 30.4489 60 25.9612 60Z"/>
<path d="M81.4967 60C76.1542 60 71.2391 58.7501 66.7514 56.2503C62.3171 53.7506 58.791 50.2934 56.1732 45.8789C53.5553 41.4645 52.2464 36.4915 52.2464 30.9601C52.2464 25.4287 53.5553 20.4558 56.1732 16.0413C58.791 11.6268 62.3171 8.19624 66.7514 5.74966C71.2391 3.24989 76.1542 2 81.4967 2C86.8393 2 91.7277 3.24989 96.162 5.74966C100.596 8.19624 104.096 11.6268 106.66 16.0413C109.278 20.4558 110.587 25.4287 110.587 30.9601C110.587 36.4915 109.278 41.4645 106.66 45.8789C104.096 50.2934 100.57 53.7506 96.0818 56.2503C91.6475 58.7501 86.7858 60 81.4967 60ZM81.4967 43.4856C85.0228 43.4856 87.7475 42.3686 89.6708 40.1348C91.5941 37.8478 92.5558 34.7895 92.5558 30.9601C92.5558 27.0775 91.5941 24.0193 89.6708 21.7854C87.7475 19.4984 85.0228 18.3549 81.4967 18.3549C77.9172 18.3549 75.1658 19.4984 73.2425 21.7854C71.3192 24.0193 70.3576 27.0775 70.3576 30.9601C70.3576 34.7895 71.3192 37.8478 73.2425 40.1348C75.1658 42.3686 77.9172 43.4856 81.4967 43.4856Z"/>
<path d="M134.795 46.0385H151.945V59.4415H117.005V2.95736H134.795V46.0385Z"/>
<path d="M179.741 60C172.956 60 167.347 58.431 162.912 55.293C158.532 52.1018 156.154 47.448 155.78 41.3315H174.693C174.96 44.5759 176.402 46.1981 179.02 46.1981C179.982 46.1981 180.783 45.9853 181.424 45.5598C182.119 45.0812 182.466 44.3631 182.466 43.4058C182.466 42.0761 181.745 41.0124 180.302 40.2146C178.86 39.3636 176.616 38.4062 173.571 37.3425C169.938 36.066 166.919 34.8161 164.515 33.5928C162.164 32.3696 160.134 30.5878 158.425 28.2476C156.715 25.9074 155.887 22.9023 155.94 19.2325C155.94 15.5626 156.875 12.4512 158.745 9.89821C160.669 7.29207 163.26 5.32417 166.519 3.9945C169.831 2.66483 173.544 2 177.658 2C184.603 2 190.106 3.5956 194.166 6.78679C198.28 9.97799 200.444 14.4723 200.657 20.2696H181.504C181.451 18.674 181.05 17.5305 180.302 16.8391C179.554 16.1476 178.646 15.8019 177.578 15.8019C176.83 15.8019 176.215 16.0679 175.734 16.5997C175.254 17.0784 175.013 17.7698 175.013 18.674C175.013 19.9505 175.708 21.0142 177.097 21.8652C178.539 22.663 180.81 23.6469 183.908 24.8171C187.488 26.1467 190.426 27.4232 192.724 28.6465C195.074 29.8698 197.105 31.5718 198.814 33.7524C200.524 35.9331 201.379 38.6722 201.379 41.9697C201.379 45.4269 200.524 48.5383 198.814 51.304C197.105 54.0165 194.62 56.144 191.361 57.6864C188.102 59.2288 184.229 60 179.741 60Z"/>
<path d="M252.186 2.95736V16.9986H237.12V59.4415H219.329V16.9986H204.424V2.95736H252.186Z"/>
<path d="M274.802 2.95736V59.4415H257.011V2.95736H274.802Z"/>
<path d="M281.234 31.1197C281.234 25.5351 282.356 20.5621 284.6 16.2008C286.897 11.8395 290.156 8.46217 294.377 6.06878C298.597 3.62219 303.566 2.3989 309.282 2.3989C314.197 2.3989 318.578 3.32967 322.425 5.1912C326.325 6.99954 329.477 9.57909 331.881 12.9298C334.339 16.2806 335.968 20.1898 336.77 24.6575H318.017C317.162 22.796 315.934 21.3599 314.331 20.3494C312.782 19.2856 310.992 18.7538 308.962 18.7538C305.97 18.7538 303.592 19.8707 301.829 22.1045C300.12 24.3384 299.265 27.3434 299.265 31.1197C299.265 34.8959 300.12 37.901 301.829 40.1348C303.592 42.3686 305.97 43.4856 308.962 43.4856C310.992 43.4856 312.782 42.9803 314.331 41.9697C315.934 40.906 317.162 39.4434 318.017 37.5818H336.77C335.968 42.0495 334.339 45.9587 331.881 49.3095C329.477 52.6602 326.325 55.2664 322.425 57.1279C318.578 58.9363 314.197 59.8404 309.282 59.8404C303.566 59.8404 298.597 58.6437 294.377 56.2503C290.156 53.8038 286.897 50.3998 284.6 46.0385C282.356 41.6772 281.234 36.7043 281.234 31.1197Z"/>
<path d="M360.966 17.0784V24.0193H378.596V37.3425H360.966V45.3205H381V59.4415H343.175V2.95736H381V17.0784H360.966Z"/>
</mask>
<path d="M25.9612 60C19.1762 60 13.5666 58.431 9.13227 55.293C4.7514 52.1018 2.37398 47.448 2 41.3315H20.9125C21.1797 44.5759 22.6221 46.1981 25.24 46.1981C26.2016 46.1981 27.003 45.9853 27.6441 45.5598C28.3386 45.0812 28.6859 44.3631 28.6859 43.4058C28.6859 42.0761 27.9647 41.0124 26.5222 40.2146C25.0797 39.3636 22.8358 38.4062 19.7906 37.3425C16.1577 36.066 13.1392 34.8161 10.735 33.5928C8.38431 32.3696 6.35416 30.5878 4.64455 28.2476C2.93494 25.9074 2.10685 22.9023 2.16028 19.2325C2.16028 15.5626 3.09522 12.4512 4.9651 9.89821C6.88841 7.29207 9.47953 5.32417 12.7385 3.9945C16.0508 2.66483 19.7639 2 23.8776 2C30.8229 2 36.3257 3.5956 40.386 6.78679C44.4998 9.97799 46.6635 14.4723 46.8772 20.2696H27.7242C27.6708 18.674 27.2701 17.5305 26.5222 16.8391C25.7742 16.1476 24.866 15.8019 23.7975 15.8019C23.0495 15.8019 22.4351 16.0679 21.9543 16.5997C21.4735 17.0784 21.2331 17.7698 21.2331 18.674C21.2331 19.9505 21.9276 21.0142 23.3167 21.8652C24.7591 22.663 27.0297 23.6469 30.1284 24.8171C33.7079 26.1467 36.6463 27.4232 38.9435 28.6465C41.2943 29.8698 43.3244 31.5718 45.034 33.7524C46.7436 35.9331 47.5984 38.6722 47.5984 41.9697C47.5984 45.4269 46.7436 48.5383 45.034 51.304C43.3244 54.0165 40.8401 56.144 37.5812 57.6864C34.3223 59.2288 30.4489 60 25.9612 60Z" stroke="white" stroke-width="2.16" mask="url(#path-3-outside-2)"/>
<path d="M81.4967 60C76.1542 60 71.2391 58.7501 66.7514 56.2503C62.3171 53.7506 58.791 50.2934 56.1732 45.8789C53.5553 41.4645 52.2464 36.4915 52.2464 30.9601C52.2464 25.4287 53.5553 20.4558 56.1732 16.0413C58.791 11.6268 62.3171 8.19624 66.7514 5.74966C71.2391 3.24989 76.1542 2 81.4967 2C86.8393 2 91.7277 3.24989 96.162 5.74966C100.596 8.19624 104.096 11.6268 106.66 16.0413C109.278 20.4558 110.587 25.4287 110.587 30.9601C110.587 36.4915 109.278 41.4645 106.66 45.8789C104.096 50.2934 100.57 53.7506 96.0818 56.2503C91.6475 58.7501 86.7858 60 81.4967 60ZM81.4967 43.4856C85.0228 43.4856 87.7475 42.3686 89.6708 40.1348C91.5941 37.8478 92.5558 34.7895 92.5558 30.9601C92.5558 27.0775 91.5941 24.0193 89.6708 21.7854C87.7475 19.4984 85.0228 18.3549 81.4967 18.3549C77.9172 18.3549 75.1658 19.4984 73.2425 21.7854C71.3192 24.0193 70.3576 27.0775 70.3576 30.9601C70.3576 34.7895 71.3192 37.8478 73.2425 40.1348C75.1658 42.3686 77.9172 43.4856 81.4967 43.4856Z" stroke="white" stroke-width="2.16" mask="url(#path-3-outside-2)"/>
<path d="M134.795 46.0385H151.945V59.4415H117.005V2.95736H134.795V46.0385Z" stroke="white" stroke-width="2.16" mask="url(#path-3-outside-2)"/>
<path d="M179.741 60C172.956 60 167.347 58.431 162.912 55.293C158.532 52.1018 156.154 47.448 155.78 41.3315H174.693C174.96 44.5759 176.402 46.1981 179.02 46.1981C179.982 46.1981 180.783 45.9853 181.424 45.5598C182.119 45.0812 182.466 44.3631 182.466 43.4058C182.466 42.0761 181.745 41.0124 180.302 40.2146C178.86 39.3636 176.616 38.4062 173.571 37.3425C169.938 36.066 166.919 34.8161 164.515 33.5928C162.164 32.3696 160.134 30.5878 158.425 28.2476C156.715 25.9074 155.887 22.9023 155.94 19.2325C155.94 15.5626 156.875 12.4512 158.745 9.89821C160.669 7.29207 163.26 5.32417 166.519 3.9945C169.831 2.66483 173.544 2 177.658 2C184.603 2 190.106 3.5956 194.166 6.78679C198.28 9.97799 200.444 14.4723 200.657 20.2696H181.504C181.451 18.674 181.05 17.5305 180.302 16.8391C179.554 16.1476 178.646 15.8019 177.578 15.8019C176.83 15.8019 176.215 16.0679 175.734 16.5997C175.254 17.0784 175.013 17.7698 175.013 18.674C175.013 19.9505 175.708 21.0142 177.097 21.8652C178.539 22.663 180.81 23.6469 183.908 24.8171C187.488 26.1467 190.426 27.4232 192.724 28.6465C195.074 29.8698 197.105 31.5718 198.814 33.7524C200.524 35.9331 201.379 38.6722 201.379 41.9697C201.379 45.4269 200.524 48.5383 198.814 51.304C197.105 54.0165 194.62 56.144 191.361 57.6864C188.102 59.2288 184.229 60 179.741 60Z" stroke="white" stroke-width="2.16" mask="url(#path-3-outside-2)"/>
<path d="M252.186 2.95736V16.9986H237.12V59.4415H219.329V16.9986H204.424V2.95736H252.186Z" stroke="white" stroke-width="2.16" mask="url(#path-3-outside-2)"/>
<path d="M274.802 2.95736V59.4415H257.011V2.95736H274.802Z" stroke="white" stroke-width="2.16" mask="url(#path-3-outside-2)"/>
<path d="M281.234 31.1197C281.234 25.5351 282.356 20.5621 284.6 16.2008C286.897 11.8395 290.156 8.46217 294.377 6.06878C298.597 3.62219 303.566 2.3989 309.282 2.3989C314.197 2.3989 318.578 3.32967 322.425 5.1912C326.325 6.99954 329.477 9.57909 331.881 12.9298C334.339 16.2806 335.968 20.1898 336.77 24.6575H318.017C317.162 22.796 315.934 21.3599 314.331 20.3494C312.782 19.2856 310.992 18.7538 308.962 18.7538C305.97 18.7538 303.592 19.8707 301.829 22.1045C300.12 24.3384 299.265 27.3434 299.265 31.1197C299.265 34.8959 300.12 37.901 301.829 40.1348C303.592 42.3686 305.97 43.4856 308.962 43.4856C310.992 43.4856 312.782 42.9803 314.331 41.9697C315.934 40.906 317.162 39.4434 318.017 37.5818H336.77C335.968 42.0495 334.339 45.9587 331.881 49.3095C329.477 52.6602 326.325 55.2664 322.425 57.1279C318.578 58.9363 314.197 59.8404 309.282 59.8404C303.566 59.8404 298.597 58.6437 294.377 56.2503C290.156 53.8038 286.897 50.3998 284.6 46.0385C282.356 41.6772 281.234 36.7043 281.234 31.1197Z" stroke="white" stroke-width="2.16" mask="url(#path-3-outside-2)"/>
<path d="M360.966 17.0784V24.0193H378.596V37.3425H360.966V45.3205H381V59.4415H343.175V2.95736H381V17.0784H360.966Z" stroke="white" stroke-width="2.16" mask="url(#path-3-outside-2)"/>
</svg>
