<svg width="94" height="92" viewBox="0 0 94 92" fill="none" xmlns="http://www.w3.org/2000/svg">
<path d="M1.0346 13.0186C1.0346 13.0186 8.0346 36.0186 12.0346 54.0186C16.0346 72.0186 21.0346 93.0186 23.0346 91.0186C25.0346 89.0186 21.0346 73.0186 21.0346 62.0186C21.0346 51.0186 23.0346 19.0186 22.0346 10.0186C21.0346 1.01861 0.0346007 -4.98139 1.0346 13.0186Z" fill="#F5865C" stroke="white" stroke-miterlimit="10"/>
<path d="M87.0345 86.0186C87.0345 86.0186 93.0345 68.0186 92.0345 56.0186C91.0345 44.0186 91.0345 16.0186 93.0345 8.0186C95.0345 0.0185966 77.0345 -2.9814 77.0345 9.0186C77.0345 21.0186 80.0345 47.0186 82.0345 60.0186C84.0345 73.0186 85.0345 92.0186 87.0345 86.0186Z" fill="#F5865C" stroke="white" stroke-miterlimit="10"/>
</svg>
