<svg width="454" height="989" viewBox="0 0 454 989" fill="none" xmlns="http://www.w3.org/2000/svg">
<path d="M429.958 265.215C418.752 252.991 416.714 247.897 408.565 232.615C400.417 217.333 380.041 208.166 380.041 208.166C376.985 189.829 375.967 188.81 356.612 171.492C337.257 154.174 306.696 161.305 294.471 159.268C282.246 157.231 261.87 137.875 258.816 133.801C255.762 129.727 258.816 113.426 257.797 101.201C256.778 88.9765 265.438 82.3555 268.497 61.9815C271.557 41.6075 265.441 35.4955 251.179 15.1215C236.917 -5.25253 207.379 0.859465 207.379 0.859465C176.309 6.45946 161.028 34.9855 161.028 48.2295C161.028 61.4735 164.084 70.6405 164.084 76.7525C164.084 82.8645 163.066 87.9585 164.084 95.0895C165.102 102.22 169.178 111.389 172.234 122.589C175.29 133.789 184.459 131.757 184.459 131.757C184.459 131.757 158.991 154.169 152.879 157.225C146.767 160.281 143.71 157.225 115.187 156.206C86.6644 155.187 55.0875 210.197 55.0875 210.197C34.7135 218.347 1.09648 280.488 0.0784796 292.712C-0.93952 304.936 8.22744 318.18 11.2834 331.423C14.3394 344.667 33.6954 366.059 44.9004 379.302C56.1054 392.546 70.3685 424.124 75.4615 434.311C80.5545 444.499 97.8734 464.874 101.948 463.854C105.848 462.876 105.075 457.222 105.014 456.754L107.041 460.799C107.041 460.799 103.985 491.36 97.8735 535.164C91.7615 578.969 106.023 645.185 126.398 664.539C146.773 683.894 146.771 694.081 151.864 705.287C156.957 716.493 156.958 782.708 157.976 803.087C158.994 823.466 189.556 900.887 193.631 924.313C197.706 947.74 182.426 951.818 178.351 955.893C174.276 959.969 164.088 960.986 154.92 964.042C145.752 967.099 140.658 977.285 141.677 983.398C142.696 989.511 145.752 989.51 151.864 988.491C157.976 987.472 182.425 989.51 193.631 986.454C204.837 983.398 224.192 988.491 237.431 986.454C250.67 984.417 250.674 970.154 246.599 963.024C242.524 955.894 235.394 937.557 233.356 927.37C231.318 917.182 231.319 847.91 232.337 837.723C233.355 827.536 242.524 808.181 240.487 790.863C238.45 773.545 219.094 728.722 219.094 728.722C221.647 718.401 222.338 707.707 221.132 697.143C219.094 679.826 222.15 608.516 222.15 608.516C222.15 608.516 237.432 657.415 243.544 681.862C249.656 706.31 255.768 718.535 257.805 726.685C259.842 734.836 261.88 733.816 256.786 765.396C251.692 796.977 256.786 820.405 261.88 828.555C266.974 836.706 272.067 842.818 278.18 862.172C284.293 881.527 289.386 919.219 289.386 932.464C289.386 945.708 279.199 956.911 280.217 968.117C281.235 979.323 299.573 976.268 316.891 974.229C334.209 972.191 340.322 977.285 351.528 979.323C362.734 981.362 366.807 979.323 370.883 981.36C374.958 983.397 382.088 977.285 382.088 975.248C382.088 973.211 382.088 967.098 376.994 963.024C371.9 958.951 361.714 955.893 354.583 949.781C347.452 943.669 333.19 928.388 330.134 921.258C327.078 914.127 328.096 840.779 330.134 808.181C332.172 775.583 325.04 753.172 320.966 738.909C316.892 724.647 317.909 688.993 319.947 677.787C321.985 666.581 323.003 659.451 330.134 646.207C337.265 632.963 340.321 576.936 330.134 550.449C319.947 523.962 300.591 514.795 298.555 506.649C296.518 498.503 296.518 468.957 296.518 468.957L309.75 456.743C309.413 457.365 298.534 477.168 297.535 481.182C296.517 485.258 302.629 489.332 305.685 485.258C308.741 481.184 321.985 459.789 330.134 449.602C338.283 439.415 340.321 431.266 342.358 424.134C344.395 417.003 375.976 388.48 393.294 377.274C410.612 366.068 448.303 324.302 452.378 312.074C456.453 299.846 441.163 277.443 429.958 265.215ZM126.385 400.706C126.385 400.706 124.347 400.706 119.254 397.65C114.161 394.594 99.8985 393.575 96.8425 392.557C93.7865 391.539 87.6744 382.37 81.5624 373.201C75.4504 364.032 78.5064 355.883 76.4684 335.509C74.4304 315.135 57.1135 298.836 57.1135 298.836L66.2814 292.724C75.4494 286.612 99.8985 261.144 99.8985 261.144C99.8985 261.144 101.936 273.369 109.067 303.93C116.198 334.491 127.403 339.584 127.403 339.584L126.385 400.706ZM360.685 351.806C352.535 363.007 320.956 400.706 314.843 400.706C308.73 400.706 297.525 403.762 297.525 403.762L298.544 395.613C299.564 387.463 293.452 370.145 291.414 366.07C289.376 361.995 298.544 343.659 310.769 325.322C322.994 306.985 324.013 284.574 329.106 279.481C334.199 274.388 339.292 255.032 339.292 255.032C347.442 275.406 393.284 311.061 393.284 311.061C378.005 319.215 368.835 340.603 360.686 351.809L360.685 351.806Z" fill="#283646"/>
</svg>
