<svg width="170" height="134" viewBox="0 0 170 134" fill="none" xmlns="http://www.w3.org/2000/svg">
<path d="M1.4096 34C1.4096 34 -2.5904 111 14.4096 125C31.4096 139 54.4096 132 56.4096 107C56.4096 107 65.4096 130 71.4096 130C77.4096 130 82.4096 107 75.4096 87C75.2009 86.4 74.9912 85.8 74.7806 85.2C63.7136 53.666 47.1736 24.162 20.9096 3.5C20.2486 2.98 18.0656 1.5 17.4096 1L1.4096 34Z" fill="#F5865C" stroke="white" stroke-miterlimit="10"/>
<path d="M135.909 7.5C135.909 7.5 114.909 23.5 107.409 48C99.7095 73.154 96.4095 99 101.409 114C106.409 129 110.409 137 114.409 132C118.409 127 120.409 113 120.409 113C120.409 113 123.409 133 141.409 132C159.409 131 172.409 112 168.409 91C164.409 70 156.409 27 156.409 27L135.909 7.5Z" fill="#F5865C" stroke="white" stroke-miterlimit="10"/>
</svg>
