<svg width="162" height="146" viewBox="0 0 162 146" fill="none" xmlns="http://www.w3.org/2000/svg">
<path d="M12.0578 6.69802C23.3878 -1.57199 38.9909 -0.662982 49.8009 8.27602C58.1339 15.167 68.1008 24.927 71.9008 34.687C78.9008 52.687 82.9008 56.687 80.9008 80.687C78.9008 104.687 73.9008 113.687 63.9008 117.687C58.3298 119.916 22.9008 121.687 11.9008 94.687C0.900834 67.687 -1.09917 25.687 2.90083 17.687C5.00727 13.3295 8.15168 9.55592 12.0578 6.69802V6.69802Z" fill="#F5865C" stroke="white" stroke-miterlimit="10"/>
<path d="M160.899 23.687C160.899 23.687 164.899 5.68701 150.899 11.687C136.899 17.687 102.899 42.687 87.899 72.687C82.499 83.495 75.899 117.687 83.899 129.687C91.899 141.687 106.899 147.687 122.899 144.687C138.899 141.687 156.184 121.623 156.899 117.687C158.899 106.687 151.899 83.687 149.899 71.687C147.899 59.687 160.899 23.687 160.899 23.687Z" fill="#F5865C" stroke="white" stroke-miterlimit="10"/>
</svg>
