<svg width="177" height="188" viewBox="0 0 177 188" fill="none" xmlns="http://www.w3.org/2000/svg">
<path d="M14.4553 8.20724C14.4553 8.20724 3.45533 29.2072 1.45533 51.2072C-0.54467 73.2072 4.45533 110.207 8.45533 129.207L20.4553 186.207C20.4553 186.207 44.4553 150.207 42.4553 114.207C40.4553 78.2072 30.4553 49.2072 33.4553 33.2072C36.4553 17.2072 26.4553 -12.7928 14.4553 8.20724Z" fill="#F5865C" stroke="white" stroke-miterlimit="10"/>
<path d="M155.455 48.2072C155.455 48.2072 168.455 58.2072 166.455 86.2072C164.455 114.207 164.455 142.207 170.455 155.207C176.455 168.207 176.455 184.207 176.455 184.207C176.455 184.207 144.455 160.207 137.455 137.207C130.455 114.207 136.455 86.2072 130.455 65.2072C124.455 44.2072 121.455 25.2072 130.455 22.2072C139.455 19.2072 155.455 48.2072 155.455 48.2072Z" fill="#F5865C" stroke="white" stroke-miterlimit="10"/>
</svg>
