<svg width="162" height="76" viewBox="0 0 162 76" fill="none" xmlns="http://www.w3.org/2000/svg">
<path d="M4.05911 1.1809C4.05911 1.1809 29.0591 18.1809 46.0591 19.1809C63.0591 20.1809 74.0591 15.1809 77.0591 9.1809C80.0591 3.1809 85.0591 67.1809 81.0591 72.1809C77.0591 77.1809 46.0591 77.1809 30.0591 55.1809C14.0591 33.1809 -6.94089 -1.8191 4.05911 1.1809Z" fill="#F5865C" stroke="white" stroke-miterlimit="10"/>
<path d="M101.907 18.1259C102.234 14.8139 106.654 10.8809 109.059 13.1809C113.191 17.1319 120.032 23.2919 128.059 25.1809C140.692 28.1539 151.668 23.9469 156.474 21.5899C156.745 21.4495 157.048 21.3816 157.354 21.3929C157.659 21.4043 157.956 21.4943 158.216 21.6545C158.477 21.8146 158.691 22.0393 158.839 22.3068C158.986 22.5743 159.062 22.8754 159.059 23.1809C159.409 27.7259 157.059 26.1809 161.059 39.1809C161.989 42.2039 156.509 62.0919 145.059 67.1809C136.059 71.1809 127.243 75.9909 112.059 64.1809C103.059 57.1809 100.541 31.9749 101.907 18.1259Z" fill="#F5865C" stroke="white" stroke-miterlimit="10"/>
</svg>
