<svg width="219" height="102" viewBox="0 0 219 102" fill="none" xmlns="http://www.w3.org/2000/svg">
<path d="M1 2C1 2 12 19 29 19C46 19 71 15 71 15C73.8752 17.8936 76.1503 21.3266 77.6948 25.1021C79.2393 28.8775 80.0228 32.9209 80 37C80 51 94 60 98 67C102 74 102 83 90 91C78 99 33 87 17 61C1 35 1 2 1 2Z" fill="#F5865C" stroke="white" stroke-miterlimit="10"/>
<path d="M218 15C218 15 186 24 174 15C174 15 167 19 164 30C161 41 149 58 142 67C135 76 131 85 142 93C153 101 172 106 186 90C200 74 211 48 213 42C215 36 218 15 218 15Z" fill="#F5865C" stroke="white" stroke-miterlimit="10"/>
</svg>
