<svg width="65" height="63" viewBox="0 0 65 63" fill="none" xmlns="http://www.w3.org/2000/svg">
<path d="M1.45952 33.1111C1.45952 33.1111 17.4595 16.1111 23.4595 8.11111C29.4595 0.111111 41.4595 0.111111 45.4595 2.11111C49.4595 4.11111 44.4595 12.1111 40.4595 19.1111C36.4595 26.1111 16.4595 60.1111 14.4595 62.1111C12.4595 64.1111 15.2545 51.7011 11.4595 44.1111C7.45952 36.1111 -0.540484 35.1111 1.45952 33.1111Z" fill="#F5865C" stroke="white" stroke-miterlimit="10"/>
<path d="M62.4594 4.11111C57.8756 9.7031 54.4737 16.1667 52.4594 23.1111C49.4594 34.1111 46.4594 45.1111 49.4594 43.1111C49.4594 43.1111 55.4594 38.1111 60.4594 39.1111C65.4594 40.1111 61.4594 32.1111 62.4594 24.1111C63.4594 16.1111 64.4594 1.11111 62.4594 4.11111Z" fill="#F5865C" stroke="white" stroke-miterlimit="10"/>
</svg>
