<svg width="142" height="79" viewBox="0 0 142 79" fill="none" xmlns="http://www.w3.org/2000/svg">
<path d="M1.2476 28.4629C1.2476 28.4629 30.2476 5.46292 34.2476 1.46292C38.2476 -2.53708 48.2476 6.46292 48.2476 18.4629C48.2476 30.4629 45.2476 32.4629 51.2476 46.4629C57.2476 60.4629 53.2476 83.4629 47.2476 77.4629C41.2476 71.4629 49.2476 67.4629 36.2476 57.4629C23.2476 47.4629 -1.7524 33.4629 1.2476 28.4629Z" fill="#F5865C" stroke="white" stroke-miterlimit="10"/>
<path d="M90.9005 6.19281C88.1215 7.73281 85.8216 10.0528 86.2476 13.4628C87.2476 21.4628 88.2476 29.4628 91.2476 39.4628C94.2476 49.4628 84.2476 68.4628 89.2476 72.4628C94.2476 76.4628 107.248 62.4628 114.248 55.4628C121.248 48.4628 143.248 43.4628 141.248 36.4628C139.248 29.4628 121.248 28.4628 114.248 18.4628C111.518 14.5721 108.355 11.0045 104.82 7.82881C102.973 6.15949 100.656 5.1005 98.1847 4.79627C95.7138 4.49203 93.2093 4.95737 91.0126 6.12882L90.9005 6.18982" fill="#F5865C"/>
<path d="M90.9005 6.19281C88.1215 7.73281 85.8216 10.0528 86.2476 13.4628C87.2476 21.4628 88.2476 29.4628 91.2476 39.4628C94.2476 49.4628 84.2476 68.4628 89.2476 72.4628C94.2476 76.4628 107.248 62.4628 114.248 55.4628C121.248 48.4628 143.248 43.4628 141.248 36.4628C139.248 29.4628 121.248 28.4628 114.248 18.4628C111.518 14.5721 108.355 11.0045 104.82 7.82881C102.973 6.15949 100.656 5.1005 98.1847 4.79627C95.7138 4.49203 93.2093 4.95737 91.0126 6.12882L90.9005 6.18982" stroke="white" stroke-miterlimit="10"/>
</svg>
